<?xml version="1.0" encoding="UTF-8"?><svg id="Ebene_1" xmlns="http://www.w3.org/2000/svg" viewBox="0 0 632.07 256.77"><defs><style>.cls-1{fill:none;stroke:#000;stroke-linecap:round;stroke-linejoin:round;stroke-width:2px;}</style></defs><path class="cls-1" d="M382.05,135.25c-31.95,28.53-43.76,50.27-52.88,92.11"/><path class="cls-1" d="M6.34,35.58c55.27,9.84,144.2,23.89,200.03,28.04"/><path class="cls-1" d="M588.47,180.36c12.85,4.05,17.53,12.21,15.97,21.88-1.06,6.57-6.41,11.67-13.02,12.44-5.12.59-10.74,0-15.36.25-37.08-1.27-74.83,6.28-111.72.05,0,0-55.59-14.85-62.26-3.84"/><path class="cls-1" d="M375.22,68.73c-4.95,24.09-16.62,46.42-30.7,66.52"/><path class="cls-1" d="M515.89,216.94c4.65,2.32,6.11,4.95,7.11,5.95,10.09,16.41-16.47,21.6-28.39,20.73-16.25-1.05-32.43,1.11-48.62.1-15.58-1.59-30.86-4.07-46.49-.23-45.29,11.11-97.1,4.1-135.48-11.45-8.42-3.41-31.88-18.47-37.69-21.81-55.45-31.98-136.8-20.14-136.8-20.14-16.02.31-63.08,6.58-78.89,9.19"/><path class="cls-1" d="M325.76,153.16c-11.36,12.16-23.79,23.69-35.39,35.39"/><path class="cls-1" d="M368.83,51.68c-14.6,3.14-30.37-.75-45.2,2.13"/><path class="cls-1" d="M448.57,120.33c18.52,9.09,88.84,7.93,103.2,12.32,2.44.58,30.51,4.72,41.14,6.28,2.62.39,5.21,1.02,7.72,1.87,12.63,4.3,22.56,7.14,26.07,25.18,2.83,24.74-30.11,12.87-44.24,14.47l-34.97-1.71c-24.66-1.3-49.36-4.12-73.76-8.24-13.88-1.35-31.14-15.25-41.8.99"/><path class="cls-1" d="M429.8,175.34c-2.19,6.68-3.78,13.6-7.68,19.62"/><path class="cls-1" d="M393.13,221.39c-.79,7.69-7.69,12.06-9.81,18.76"/><path class="cls-1" d="M318.94,52.53c3.45,4.3,7.02,15.08,12.79,14.5"/><path class="cls-1" d="M504.85,91.76c1.03,5.09,1.25,10.21.43,15.35"/><path class="cls-1" d="M435.77,90.05c4.08,3.49,4.03,15.06,4.26,16.2"/><path class="cls-1" d="M446.86,135.25c-.89,4.51.01,9.13-.85,13.65"/><path class="cls-1" d="M334.29,52.33c-3.64-2.87-9.56-7.75-14.5-8.33"/><path class="cls-1" d="M501.02,142.08c-.1,3.99.73,7.94.43,11.94"/><path class="cls-1" d="M358.17,18.42c-1.22,3.97,1.79,7.29,1.71,11.09"/><path class="cls-1" d="M546.64,190.69c-2.04,3.11-.42,7.44-3.41,10.23"/><path class="cls-1" d="M578.2,153.16c-2.04,4.72,1.15,9.44-.85,13.65"/><path class="cls-1" d="M469.15,169.91c-4.65.44-12.34.04-15.47.31,0,0-12.45.84-15.78-2.98"/><path class="cls-1" d="M359.02,38.88c8.7,16.81,27.65,20.03,45.2,16.21,37.97,14.19,79.25,12.81,118.82,19.62.91.16,1.81.37,2.69.63,20.57,6.1,46.51,14.36,61.39,17.89,13.39,3.17,27.92,21.04,21.22,32.27-2.1,3.51-5.98,5.54-10.07,5.76-15.28.81-51.34-6.1-61.87-6.2-8.45.32-23.45-3.88-23.45-3.88-12.48-2.21-39.06-2.11-40.13-2.14-7.38-.26-16.9-3.96-23.4-.41,0,0-8,3.67-9.38,9.38"/><path class="cls-1" d="M404.22,55.1c15.26-2.76,49.76-16.34,37.02-32.08-2.69-3.32-6.54-5.49-10.71-6.42-15.04-3.34-30.85-2.03-45.51-7.95-13.49-6.07-26.55-1.58-40.5,0-23.63.87-50.34-4.9-70.78,8.91l-7.25,5.54c-10.78,8.9-26.09,19.69-35.24,24.37-2.59,1.33-5.07,2.88-7.4,4.62h0c-8.12,5.33-18.41,9.67-21.75,19.62"/><path class="cls-1" d="M486.94,190.69c-.25,3.72-1.11,7.36-1.28,11.09"/><path class="cls-1" d="M476.71,226.51c1.02,2.35.1,4.57-.43,6.82"/><path class="cls-1" d="M559.44,103.7c1.38,3.18,1.34,6.86,3.41,9.81"/></svg>