<?xml version="1.0" encoding="UTF-8"?><svg id="Ebene_1" xmlns="http://www.w3.org/2000/svg" viewBox="0 0 469.79 265.53"><defs><style>.cls-1{fill:none;}.cls-1,.cls-2{stroke:#000;stroke-linecap:round;stroke-linejoin:round;stroke-width:2px;}</style></defs><path class="cls-1" d="M386.57,207.99c4.18-.03,8.44,17.37,1.52,27.18-9.43,13.36-21.4,13.92-33.04,20.67-3.56,2.07-7.65,3.07-11.77,3.08-44.63.1-79.62-7.65-133.18-24.13-57.51-17.69-143.8-7.7-203.58-5.05"/><path class="cls-1" d="M325.17,147.18c-1.97,14.56-15.27,38.07-21.56,50.36"/><path class="cls-1" d="M324.91,146.46c-4.66,10.86-5.72,25.92-36.24,48.83"/><path class="cls-1" d="M421.4,23.14c4.95.71,19.94,1.87,25.71,2.31,2.21.17,4.38.7,6.4,1.62,24.02,10.86-1.09,33.74-12.58,32.08"/><path class="cls-1" d="M379.74,64.88c16.34-5.11,37.02-7.77,53.07-6.9,18.98,1.03,31.38,17.01,13.51,43.35-10.39,15.31-58.1,11.57-75.32,9.62-11.25-1.27-17.76-8.16-33.45-2.37-9.88,3.65-20.18,32.12-8.95,44.12"/><path class="cls-1" d="M314.57,217.82c-3.28,8.54-.41,13.46-6.38,20.94"/><path class="cls-1" d="M312.83,211.97c-6.04,8.01-3.33,10.52-12.04,15.55"/><path class="cls-1" d="M420.89,112.5c17.59,11.13,9.85,49.02-19.89,50.3l6.27,2.17c1.46.51,2.87,1.15,4.22,1.91,1.54.88,3.33,1.94,4.06,2.94,15.06,20.68-3.15,36.22-25.47,38.02l-12.06.4c-4.71.43-32.35-7.45-41.35-10.07-2.23-.65-4.37-1.59-6.33-2.84-29.89-18.96-1.69-52.32,16.27-40.91,3.42,2.17,7.3,3.55,11.35,3.67,15.22.44,28.01,2.04,35.09,3.98"/><path class="cls-1" d="M332.7,233.35c-1.74,7.63,4.22,14.77,8.62,20.62"/><path class="cls-1" d="M426.08,62.35c-11.16.9-49.8,3.91-52.8,1.69-3.91-2.89-14.64-1.02-18.72,3.4-4.46,4.83-10.75,30.69,3.28,39.83"/><path class="cls-1" d="M199.58,144.1c-.45,13.11.27,25.71,1.88,38.62"/><path class="cls-1" d="M445.58,76.22c.28,4.42-.51,8.76-1.12,13.12"/><path class="cls-1" d="M312.45,58.97c3.88,1.62,7.75,3.25,11.62,4.88"/><path class="cls-1" d="M201.83,205.6c-.12,3.75-.25,7.5-.38,11.25"/><path class="cls-1" d="M382.95,54.47c-5.43,5.28-4.74,5.65-11.04,8.54"/><path class="cls-1" d="M378.83,43.6c-.94,6.96,8.79,13.73,17.68,17.08"/><path class="cls-1" d="M350.81,71.52c-5.61.74-9.46,1.09-15.1.95"/><path class="cls-1" d="M333.45,65.35c1.26,5.11,4.08,10.05,2.25,15.37"/><path class="cls-2" d="M344.36,106.42c6.05-3.84,3.29-2.1,5.87-8.26l4.77,8.51-10.64-.26Z"/><path class="cls-2" d="M321.76,160.25c3.85-6.61,3.6-5.23,3.15-12.3l4.6,5.87-7.74,6.43Z"/><path class="cls-1" d="M458.7,31.6c-1.58,11.95-33.88,8.53-36.23-3.89.21-10.97-24.62-17.65-32.07-20.59-17.13-6.74-47.7,11.83-71.23,16.44-24.31.93-45.65,9.85-60.3,28.7-50.98,66.24-49.1,51.94-125.57,41.22-54.64-7.66-85.36-16.56-128.66-24.29"/><path class="cls-1" d="M416.33,139.6c-.12,1.75-.25,3.5-.38,5.25"/><path class="cls-1" d="M323.33,190.22c-.53.4-1.15,1.04-1.81,1.82-3.71,4.4-8.49,9.81-8.6,15.56l.51,4.72c.72,4.6,3.89,9.24,7.31,12.39.6.56,3.72,2.99,3.72,2.99,13.32,8.41,28.93,12.37,43.5,18"/></svg>