<?xml version="1.0" encoding="UTF-8"?><svg id="Ebene_1" xmlns="http://www.w3.org/2000/svg" viewBox="0 0 637.28 254.3"><defs><style>.cls-1{fill:none;stroke:#000;stroke-linecap:round;stroke-linejoin:round;stroke-width:2px;}</style></defs><path class="cls-1" d="M187.54,68.37c4.24.49,12.92,2.48,16.81.98,9.23-3.56,41.7-4.04,51.44-4.61,8.58-.07,112.61-12.39,140.25-16.85,25.06-.28,46.35-15.12,69.78-22.12,14.65-4.45,23.64-5.59,40.84-8.36,22.92-1.44,63.26-18.65,81.72-1.86,8,8.63,2.34,19.82-5.64,26.18-12.07,5.8-25.57,3.09-37.76,6.55-29.84,9.51-60.28,17.5-89.36,29.78-20.91,5.77-29.72,28.16-32.59,47.72"/><path class="cls-1" d="M431.66,99.16c19.66,4.89,39-2.81,58.87-1.16,35.58-2.06,71.11,4.11,106.5,6.44,52.41.47,45.53,51.91-13.5,36.74-27.67-2.7-55.61.1-82.12,2.18-12.74.42-25.5.83-38.25.7-16.07-.04-33.8-6.33-47.63,4.98"/><path class="cls-1" d="M316.03,65.79c12.69,9.36,27.07,15.91,40.8,23.33,12.7,7.09,27.3,10.61,33.2,25.73,4.04,11.27,23.24,32.65,27.56,42.07,2.23,4.87,4.75,7.39.03,13.49-8.78,10.48-31.58-.42-43.51-6.86-2.85-1.54-5.51-3.39-7.93-5.56-11.04-9.89-25.17-20.38-22.4-36.71"/><path class="cls-1" d="M180.03,122.79c25.84,23.08,56.14,45.75,89.25,21.75"/><path class="cls-1" d="M428.24,206.66c4.79,10.68,5.65,27.59-5.96,31.24-16.18,4.7-30.54,5.17-43.32,8.27-53.17,12.89-115.44-15.39-169-45.27-9.83-5.69-163.88-8.69-201.68-2.68"/><path class="cls-1" d="M6.41,37.66c10.19,1.7,149,26.88,181.13,30.7"/><path class="cls-1" d="M417.11,148.81c7.62,4.8,14.45,7.18,23.17,8.1,10.4,1.1,21.85,10.57,21.85,22.1-.44,20.11-14.3,31.45-31.24,27.64-9.62-2.17-25.54-10.33-31.24-13.36-1.57-.83-3.24-1.47-4.98-1.85-8.55-1.88-17.32-1.78-25.99-2.02-8.43-1.28-16.64-4.01-25.13-4.82-2.43-.23-4.73.94-5.76,4.14-6.17,19.18,21.47,33.77,36.45,38.57,4.61,1.26,8.53,6.86,13.17,9.09"/><path class="cls-1" d="M319.32,162.91c-8.91,10.59-19.08,17.5-30.53,25.12"/><path class="cls-1" d="M363.78,191.79c6.34,13.87-15.81,14.06-22.33,6.64"/><path class="cls-1" d="M390.78,134.04c-3.57,4.32-7.42,5.73-4.42,11.59,2.49,6.34,5.75,12.3,12.67,15.03"/><path class="cls-1" d="M265.53,102.54c13.94,8.73,28.06,21.39,45.75,16.88"/><path class="cls-1" d="M328.92,145.16c2.42-3.11,4.61-9.39,5.24-13.75"/><path class="cls-1" d="M310.91,116.79c4.99,9.64,23.41,14.57,33.43,15"/><path class="cls-1" d="M325.53,161.79c.19,8.27,10.79,12.23,18,11.25"/><path class="cls-1" d="M525.41,23.04c-.59,6.26.38,12.16,2.62,18"/><path class="cls-1" d="M264.78,157.29c-8.01,4.27-15.37,9.98-24.75,11.25"/><path class="cls-1" d="M320.28,125.79c-5.88,3.13-15.12,6.63-21,9.75"/><path class="cls-1" d="M355.53,156.54c3.56,3.84,3.19,13.28-3,13.88"/><path class="cls-1" d="M381.03,74.04c-5.48,4.02-10.59,8.41-14.25,14.25"/><path class="cls-1" d="M450.6,172.66c.31,4.88.62,9.75.94,14.62"/><path class="cls-1" d="M348.03,151.66c-5.29-3.47-10.82-3.42-16.5-1.12"/><path class="cls-1" d="M469.91,38.04c-.62,6.03,3.31,11.08,5.25,16.5"/><path class="cls-1" d="M347.5,139.66c-4.76.49-18.57,5.5-18.57,5.5-19.67,5.7-5.58,41.23,10.06,41.3"/><path class="cls-1" d="M489.41,115.29v14.07"/><path class="cls-1" d="M369.41,226.66c-2.19,2.58-2.33,5.52-1.5,8.62"/><path class="cls-1" d="M356.28,96.54c-2.75,1.75-5.5,3.5-8.25,5.25"/><path class="cls-1" d="M402.81,162.6c4.6,2.33,8.71,2.42,12.72-.44"/><path class="cls-1" d="M203.16,70.35l-2.01,6.94"/><path class="cls-1" d="M551.66,115.66c-1.4,3.25.34,10.45,2.13,13.7"/></svg>