<?xml version="1.0" encoding="UTF-8"?><svg id="Ebene_1" xmlns="http://www.w3.org/2000/svg" viewBox="0 0 632.07 256.77"><defs><style>.cls-1{fill:#6f6f6f;}.cls-2{fill:#5f5f5f;}.cls-3{fill:#4f4f4f;}.cls-4{fill:#7b7b7b;}.cls-5{fill:#434343;}.cls-6{fill:#8b8b8b;}.cls-7{fill:#838383;}.cls-8{fill:#777;}.cls-9{fill:#a7a7a7;}.cls-10{fill:#272727;}.cls-11{fill:#3f3f3f;}.cls-12{fill:#9f9f9f;}.cls-13{fill:#8f8f8f;}.cls-14{fill:#131313;}.cls-15{fill:#5b5b5b;}.cls-16{fill:#9b9b9b;}.cls-17{fill:#535353;}.cls-18{fill:#2f2f2f;}.cls-19{fill:#171717;}.cls-20{fill:#737373;}.cls-21{fill:#3b3b3b;}.cls-22{fill:#1f1f1f;}.cls-23{fill:#636363;}.cls-24{fill:#373737;}.cls-25{fill:#575757;}.cls-26{fill:#939393;}.cls-27{fill:#878787;}.cls-28{fill:#2b2b2b;}.cls-29{fill:#030303;}.cls-30{fill:#333;}.cls-31{fill:#474747;}.cls-32{fill:#0f0f0f;}.cls-33{fill:#1b1b1b;}.cls-34{fill:#0b0b0b;}.cls-35{fill:#232323;}.cls-36{fill:#6b6b6b;}.cls-37{fill:#979797;}.cls-38{fill:#a3a3a3;}.cls-39{fill:#ababab;}.cls-40{fill:#7f7f7f;}.cls-41{fill:#4b4b4b;}.cls-42{fill:#070707;}.cls-43{fill:#676767;}</style></defs><rect class="cls-31" x="316.17" y="246.2" width="5.68" height="5.66"/><rect x="310.49" y="246.2" width="5.68" height="5.66"/><rect x="304.81" y="246.2" width="5.68" height="5.66"/><rect x="299.12" y="246.2" width="5.68" height="5.66"/><rect x="293.44" y="246.2" width="5.68" height="5.66"/><rect x="287.76" y="246.2" width="5.68" height="5.66"/><rect x="282.08" y="246.2" width="5.68" height="5.66"/><rect x="276.4" y="246.2" width="5.68" height="5.66"/><rect x="270.71" y="246.2" width="5.68" height="5.66"/><rect x="265.03" y="246.2" width="5.68" height="5.66"/><rect x="259.35" y="246.2" width="5.68" height="5.66"/><rect x="253.67" y="246.2" width="5.68" height="5.66"/><rect x="247.99" y="246.2" width="5.68" height="5.66"/><rect class="cls-30" x="242.31" y="246.2" width="5.68" height="5.66"/><rect class="cls-26" x="236.62" y="246.2" width="5.68" height="5.66"/><rect class="cls-12" x="344.58" y="240.54" width="5.68" height="5.66"/><rect x="338.9" y="240.54" width="5.68" height="5.66"/><rect x="333.21" y="240.54" width="5.68" height="5.66"/><rect x="327.53" y="240.54" width="5.68" height="5.66"/><rect class="cls-7" x="321.85" y="240.54" width="5.68" height="5.66"/><rect class="cls-31" x="247.99" y="240.54" width="5.68" height="5.66"/><rect class="cls-32" x="230.94" y="240.54" width="5.68" height="5.66"/><rect x="225.26" y="240.54" width="5.68" height="5.66"/><rect x="219.58" y="240.54" width="5.68" height="5.66"/><rect x="213.9" y="240.54" width="5.68" height="5.66"/><rect x="208.21" y="240.54" width="5.68" height="5.66"/><rect x="202.53" y="240.54" width="5.68" height="5.66"/><rect x="196.85" y="240.54" width="5.68" height="5.66"/><rect x="191.17" y="240.54" width="5.68" height="5.66"/><rect x="185.49" y="240.54" width="5.68" height="5.66"/><rect class="cls-22" x="179.81" y="240.54" width="5.68" height="5.66"/><rect class="cls-22" x="174.12" y="240.54" width="5.68" height="5.66"/><rect class="cls-22" x="168.44" y="240.54" width="5.68" height="5.66"/><rect class="cls-29" x="162.76" y="240.54" width="5.68" height="5.66"/><rect x="157.08" y="240.54" width="5.68" height="5.66"/><rect x="151.4" y="240.54" width="5.68" height="5.66"/><rect x="145.71" y="240.54" width="5.68" height="5.66"/><rect x="140.03" y="240.54" width="5.68" height="5.66"/><rect x="134.35" y="240.54" width="5.68" height="5.66"/><rect x="128.67" y="240.54" width="5.68" height="5.66"/><rect x="122.99" y="240.54" width="5.68" height="5.66"/><rect x="117.31" y="240.54" width="5.68" height="5.66"/><rect class="cls-16" x="361.62" y="234.88" width="5.68" height="5.66"/><rect x="355.94" y="234.88" width="5.68" height="5.66"/><rect x="350.26" y="234.88" width="5.68" height="5.66"/><rect class="cls-16" x="344.58" y="234.88" width="5.68" height="5.66"/><rect class="cls-11" x="247.99" y="234.88" width="5.68" height="5.66"/><rect class="cls-38" x="242.31" y="234.88" width="5.68" height="5.66"/><rect class="cls-18" x="111.62" y="234.88" width="5.68" height="5.66"/><rect class="cls-33" x="105.94" y="234.88" width="5.68" height="5.66"/><rect class="cls-25" x="372.99" y="229.22" width="5.68" height="5.66"/><rect x="367.31" y="229.22" width="5.68" height="5.66"/><rect class="cls-27" x="361.62" y="229.22" width="5.68" height="5.66"/><rect x="242.31" y="229.22" width="5.68" height="5.66"/><rect class="cls-40" x="236.62" y="229.22" width="5.68" height="5.66"/><rect class="cls-34" x="151.4" y="229.22" width="5.68" height="5.66"/><rect x="105.94" y="229.22" width="5.68" height="5.66"/><rect x="378.67" y="223.56" width="5.68" height="5.66"/><rect class="cls-16" x="372.99" y="223.56" width="5.68" height="5.66"/><rect x="299.12" y="223.56" width="5.68" height="5.66"/><rect x="236.62" y="223.56" width="5.68" height="5.66"/><rect class="cls-13" x="151.4" y="223.56" width="5.68" height="5.66"/><rect x="105.94" y="223.56" width="5.68" height="5.66"/><rect class="cls-12" x="390.03" y="217.9" width="5.68" height="5.66"/><rect x="384.35" y="217.9" width="5.68" height="5.66"/><rect x="299.12" y="217.9" width="5.68" height="5.66"/><rect x="236.62" y="217.9" width="5.68" height="5.66"/><rect class="cls-34" x="111.62" y="217.9" width="5.68" height="5.66"/><rect class="cls-40" x="105.94" y="217.9" width="5.68" height="5.66"/><rect x="395.71" y="212.25" width="5.68" height="5.66"/><rect class="cls-21" x="390.03" y="212.25" width="5.68" height="5.66"/><rect x="299.12" y="212.25" width="5.68" height="5.66"/><rect class="cls-2" x="174.12" y="212.25" width="5.68" height="5.66"/><rect x="168.44" y="212.25" width="5.68" height="5.66"/><rect x="162.76" y="212.25" width="5.68" height="5.66"/><rect x="157.08" y="212.25" width="5.68" height="5.66"/><rect x="151.4" y="212.25" width="5.68" height="5.66"/><rect class="cls-18" x="145.71" y="212.25" width="5.68" height="5.66"/><rect class="cls-3" x="140.03" y="212.25" width="5.68" height="5.66"/><rect class="cls-2" x="134.35" y="212.25" width="5.68" height="5.66"/><rect class="cls-2" x="128.67" y="212.25" width="5.68" height="5.66"/><rect class="cls-11" x="122.99" y="212.25" width="5.68" height="5.66"/><rect class="cls-28" x="117.31" y="212.25" width="5.68" height="5.66"/><rect class="cls-29" x="111.62" y="212.25" width="5.68" height="5.66"/><rect x="105.94" y="212.25" width="5.68" height="5.66"/><rect x="100.26" y="212.25" width="5.68" height="5.66"/><rect x="94.58" y="212.25" width="5.68" height="5.66"/><rect x="88.9" y="212.25" width="5.68" height="5.66"/><rect x="83.21" y="212.25" width="5.68" height="5.66"/><rect x="77.53" y="212.25" width="5.68" height="5.66"/><rect x="71.85" y="212.25" width="5.68" height="5.66"/><rect x="66.17" y="212.25" width="5.68" height="5.66"/><rect x="60.49" y="212.25" width="5.68" height="5.66"/><rect x="54.81" y="212.25" width="5.68" height="5.66"/><rect x="49.12" y="212.25" width="5.68" height="5.66"/><rect x="43.44" y="212.25" width="5.68" height="5.66"/><rect x="37.76" y="212.25" width="5.68" height="5.66"/><rect class="cls-43" x="32.08" y="212.25" width="5.68" height="5.66"/><rect x="407.08" y="206.59" width="5.68" height="5.66"/><rect class="cls-30" x="401.4" y="206.59" width="5.68" height="5.66"/><rect class="cls-26" x="299.12" y="206.59" width="5.68" height="5.66"/><rect class="cls-9" x="293.44" y="206.59" width="5.68" height="5.66"/><rect x="225.26" y="206.59" width="5.68" height="5.66"/><rect class="cls-28" x="219.58" y="206.59" width="5.68" height="5.66"/><rect class="cls-2" x="213.9" y="206.59" width="5.68" height="5.66"/><rect class="cls-15" x="208.21" y="206.59" width="5.68" height="5.66"/><rect class="cls-32" x="202.53" y="206.59" width="5.68" height="5.66"/><rect x="196.85" y="206.59" width="5.68" height="5.66"/><rect x="191.17" y="206.59" width="5.68" height="5.66"/><rect x="185.49" y="206.59" width="5.68" height="5.66"/><rect class="cls-11" x="179.81" y="206.59" width="5.68" height="5.66"/><rect class="cls-23" x="32.08" y="206.59" width="5.68" height="5.66"/><rect class="cls-33" x="26.4" y="206.59" width="5.68" height="5.66"/><rect class="cls-12" x="424.12" y="200.93" width="5.68" height="5.66"/><rect x="418.44" y="200.93" width="5.68" height="5.66"/><rect class="cls-32" x="412.76" y="200.93" width="5.68" height="5.66"/><rect x="293.44" y="200.93" width="5.68" height="5.66"/><rect class="cls-43" x="145.71" y="200.93" width="5.68" height="5.66"/><rect x="26.4" y="200.93" width="5.68" height="5.66"/><rect x="617.31" y="195.27" width="5.68" height="5.66"/><rect x="611.62" y="195.27" width="5.68" height="5.66"/><rect x="605.94" y="195.27" width="5.68" height="5.66"/><rect x="600.26" y="195.27" width="5.68" height="5.66"/><rect class="cls-17" x="594.58" y="195.27" width="5.68" height="5.66"/><rect class="cls-40" x="441.17" y="195.27" width="5.68" height="5.66"/><rect x="435.49" y="195.27" width="5.68" height="5.66"/><rect x="429.81" y="195.27" width="5.68" height="5.66"/><rect class="cls-27" x="424.12" y="195.27" width="5.68" height="5.66"/><rect x="293.44" y="195.27" width="5.68" height="5.66"/><rect class="cls-29" x="145.71" y="195.27" width="5.68" height="5.66"/><rect class="cls-16" x="88.9" y="195.27" width="5.68" height="5.66"/><rect class="cls-16" x="83.21" y="195.27" width="5.68" height="5.66"/><rect x="26.4" y="195.27" width="5.68" height="5.66"/><rect class="cls-12" x="588.9" y="189.61" width="5.68" height="5.66"/><rect class="cls-21" x="583.21" y="189.61" width="5.68" height="5.66"/><rect x="577.53" y="189.61" width="5.68" height="5.66"/><rect x="571.85" y="189.61" width="5.68" height="5.66"/><rect x="566.17" y="189.61" width="5.68" height="5.66"/><rect x="560.49" y="189.61" width="5.68" height="5.66"/><rect x="554.81" y="189.61" width="5.68" height="5.66"/><rect x="549.12" y="189.61" width="5.68" height="5.66"/><rect class="cls-10" x="543.44" y="189.61" width="5.68" height="5.66"/><rect class="cls-25" x="537.76" y="189.61" width="5.68" height="5.66"/><rect class="cls-9" x="475.26" y="189.61" width="5.68" height="5.66"/><rect class="cls-17" x="469.58" y="189.61" width="5.68" height="5.66"/><rect x="463.9" y="189.61" width="5.68" height="5.66"/><rect x="458.21" y="189.61" width="5.68" height="5.66"/><rect x="452.53" y="189.61" width="5.68" height="5.66"/><rect class="cls-34" x="446.85" y="189.61" width="5.68" height="5.66"/><rect class="cls-26" x="293.44" y="189.61" width="5.68" height="5.66"/><rect class="cls-26" x="287.76" y="189.61" width="5.68" height="5.66"/><rect class="cls-2" x="208.21" y="189.61" width="5.68" height="5.66"/><rect class="cls-12" x="202.53" y="189.61" width="5.68" height="5.66"/><rect class="cls-36" x="145.71" y="189.61" width="5.68" height="5.66"/><rect class="cls-32" x="83.21" y="189.61" width="5.68" height="5.66"/><rect x="26.4" y="189.61" width="5.68" height="5.66"/><rect class="cls-9" x="532.08" y="183.95" width="5.68" height="5.66"/><rect class="cls-43" x="526.4" y="183.95" width="5.68" height="5.66"/><rect class="cls-11" x="520.71" y="183.95" width="5.68" height="5.66"/><rect class="cls-22" x="515.03" y="183.95" width="5.68" height="5.66"/><rect x="509.35" y="183.95" width="5.68" height="5.66"/><rect x="503.67" y="183.95" width="5.68" height="5.66"/><rect x="497.99" y="183.95" width="5.68" height="5.66"/><rect class="cls-22" x="492.31" y="183.95" width="5.68" height="5.66"/><rect class="cls-11" x="486.62" y="183.95" width="5.68" height="5.66"/><rect class="cls-36" x="480.94" y="183.95" width="5.68" height="5.66"/><rect class="cls-29" x="338.9" y="183.95" width="5.68" height="5.66"/><rect class="cls-13" x="333.21" y="183.95" width="5.68" height="5.66"/><rect x="287.76" y="183.95" width="5.68" height="5.66"/><rect x="202.53" y="183.95" width="5.68" height="5.66"/><rect x="32.08" y="183.95" width="5.68" height="5.66"/><rect class="cls-29" x="333.21" y="178.29" width="5.68" height="5.66"/><rect class="cls-13" x="327.53" y="178.29" width="5.68" height="5.66"/><rect class="cls-11" x="287.76" y="178.29" width="5.68" height="5.66"/><rect x="202.53" y="178.29" width="5.68" height="5.66"/><rect class="cls-27" x="94.58" y="178.29" width="5.68" height="5.66"/><rect class="cls-2" x="88.9" y="178.29" width="5.68" height="5.66"/><rect class="cls-10" x="83.21" y="178.29" width="5.68" height="5.66"/><rect class="cls-19" x="77.53" y="178.29" width="5.68" height="5.66"/><rect x="71.85" y="178.29" width="5.68" height="5.66"/><rect x="66.17" y="178.29" width="5.68" height="5.66"/><rect x="60.49" y="178.29" width="5.68" height="5.66"/><rect x="54.81" y="178.29" width="5.68" height="5.66"/><rect x="49.12" y="178.29" width="5.68" height="5.66"/><rect x="43.44" y="178.29" width="5.68" height="5.66"/><rect x="37.76" y="178.29" width="5.68" height="5.66"/><rect x="32.08" y="178.29" width="5.68" height="5.66"/><rect x="26.4" y="178.29" width="5.68" height="5.66"/><rect x="20.71" y="178.29" width="5.68" height="5.66"/><rect x="15.03" y="178.29" width="5.68" height="5.66"/><rect x="9.35" y="178.29" width="5.68" height="5.66"/><rect class="cls-29" x="327.53" y="172.63" width="5.68" height="5.66"/><rect class="cls-1" x="321.85" y="172.63" width="5.68" height="5.66"/><rect x="282.08" y="172.63" width="5.68" height="5.66"/><rect class="cls-9" x="196.85" y="172.63" width="5.68" height="5.66"/><rect class="cls-13" x="145.71" y="172.63" width="5.68" height="5.66"/><rect class="cls-33" x="140.03" y="172.63" width="5.68" height="5.66"/><rect x="134.35" y="172.63" width="5.68" height="5.66"/><rect x="128.67" y="172.63" width="5.68" height="5.66"/><rect x="122.99" y="172.63" width="5.68" height="5.66"/><rect x="117.31" y="172.63" width="5.68" height="5.66"/><rect class="cls-34" x="111.62" y="172.63" width="5.68" height="5.66"/><rect class="cls-25" x="105.94" y="172.63" width="5.68" height="5.66"/><rect class="cls-16" x="100.26" y="172.63" width="5.68" height="5.66"/><rect x="3.67" y="172.63" width="5.68" height="5.66"/><rect class="cls-34" x="321.85" y="166.97" width="5.68" height="5.66"/><rect class="cls-1" x="316.17" y="166.97" width="5.68" height="5.66"/><rect class="cls-39" x="282.08" y="166.97" width="5.68" height="5.66"/><rect class="cls-10" x="276.4" y="166.97" width="5.68" height="5.66"/><rect x="196.85" y="166.97" width="5.68" height="5.66"/><rect x="191.17" y="166.97" width="5.68" height="5.66"/><rect x="185.49" y="166.97" width="5.68" height="5.66"/><rect x="179.81" y="166.97" width="5.68" height="5.66"/><rect x="174.12" y="166.97" width="5.68" height="5.66"/><rect x="168.44" y="166.97" width="5.68" height="5.66"/><rect x="162.76" y="166.97" width="5.68" height="5.66"/><rect x="157.08" y="166.97" width="5.68" height="5.66"/><rect class="cls-41" x="151.4" y="166.97" width="5.68" height="5.66"/><rect x="3.67" y="166.97" width="5.68" height="5.66"/><rect class="cls-34" x="316.17" y="161.31" width="5.68" height="5.66"/><rect class="cls-1" x="310.49" y="161.31" width="5.68" height="5.66"/><rect x="276.4" y="161.31" width="5.68" height="5.66"/><rect class="cls-19" x="191.17" y="161.31" width="5.68" height="5.66"/><rect x="185.49" y="161.31" width="5.68" height="5.66"/><rect x="179.81" y="161.31" width="5.68" height="5.66"/><rect class="cls-30" x="174.12" y="161.31" width="5.68" height="5.66"/><rect class="cls-2" x="49.12" y="161.31" width="5.68" height="5.66"/><rect x="3.67" y="161.31" width="5.68" height="5.66"/><rect class="cls-34" x="310.49" y="155.65" width="5.68" height="5.66"/><rect class="cls-20" x="304.81" y="155.65" width="5.68" height="5.66"/><rect x="270.71" y="155.65" width="5.68" height="5.66"/><rect class="cls-38" x="54.81" y="155.65" width="5.68" height="5.66"/><rect class="cls-11" x="3.67" y="155.65" width="5.68" height="5.66"/><rect class="cls-29" x="304.81" y="150" width="5.68" height="5.66"/><rect x="265.03" y="150" width="5.68" height="5.66"/><rect x="128.67" y="150" width="5.68" height="5.66"/><rect class="cls-6" x="49.12" y="150" width="5.68" height="5.66"/><rect x="9.35" y="150" width="5.68" height="5.66"/><rect x="259.35" y="144.34" width="5.68" height="5.66"/><rect class="cls-2" x="185.49" y="144.34" width="5.68" height="5.66"/><rect x="128.67" y="144.34" width="5.68" height="5.66"/><rect class="cls-30" x="20.71" y="144.34" width="5.68" height="5.66"/><rect x="15.03" y="144.34" width="5.68" height="5.66"/><rect x="253.67" y="138.68" width="5.68" height="5.66"/><rect class="cls-2" x="185.49" y="138.68" width="5.68" height="5.66"/><rect class="cls-28" x="128.67" y="138.68" width="5.68" height="5.66"/><rect class="cls-36" x="43.44" y="138.68" width="5.68" height="5.66"/><rect x="37.76" y="138.68" width="5.68" height="5.66"/><rect x="32.08" y="138.68" width="5.68" height="5.66"/><rect x="26.4" y="138.68" width="5.68" height="5.66"/><rect class="cls-43" x="287.76" y="133.02" width="5.68" height="5.66"/><rect class="cls-40" x="282.08" y="133.02" width="5.68" height="5.66"/><rect x="247.99" y="133.02" width="5.68" height="5.66"/><rect class="cls-12" x="83.21" y="133.02" width="5.68" height="5.66"/><rect class="cls-18" x="77.53" y="133.02" width="5.68" height="5.66"/><rect x="71.85" y="133.02" width="5.68" height="5.66"/><rect x="66.17" y="133.02" width="5.68" height="5.66"/><rect x="60.49" y="133.02" width="5.68" height="5.66"/><rect class="cls-42" x="54.81" y="133.02" width="5.68" height="5.66"/><rect class="cls-8" x="49.12" y="133.02" width="5.68" height="5.66"/><rect x="282.08" y="127.36" width="5.68" height="5.66"/><rect class="cls-39" x="134.35" y="127.36" width="5.68" height="5.66"/><rect class="cls-40" x="128.67" y="127.36" width="5.68" height="5.66"/><rect class="cls-31" x="122.99" y="127.36" width="5.68" height="5.66"/><rect class="cls-22" x="117.31" y="127.36" width="5.68" height="5.66"/><rect x="111.62" y="127.36" width="5.68" height="5.66"/><rect x="105.94" y="127.36" width="5.68" height="5.66"/><rect x="100.26" y="127.36" width="5.68" height="5.66"/><rect x="94.58" y="127.36" width="5.68" height="5.66"/><rect x="88.9" y="127.36" width="5.68" height="5.66"/><rect x="83.21" y="127.36" width="5.68" height="5.66"/><rect class="cls-19" x="77.53" y="127.36" width="5.68" height="5.66"/><rect class="cls-13" x="71.85" y="127.36" width="5.68" height="5.66"/><rect class="cls-40" x="66.17" y="127.36" width="5.68" height="5.66"/><rect class="cls-19" x="60.49" y="127.36" width="5.68" height="5.66"/><rect x="54.81" y="127.36" width="5.68" height="5.66"/><rect x="49.12" y="127.36" width="5.68" height="5.66"/><rect x="43.44" y="127.36" width="5.68" height="5.66"/><rect x="37.76" y="127.36" width="5.68" height="5.66"/><rect x="32.08" y="127.36" width="5.68" height="5.66"/><rect x="26.4" y="127.36" width="5.68" height="5.66"/><rect class="cls-12" x="282.08" y="121.7" width="5.68" height="5.66"/><rect class="cls-24" x="276.4" y="121.7" width="5.68" height="5.66"/><rect class="cls-16" x="191.17" y="121.7" width="5.68" height="5.66"/><rect class="cls-18" x="185.49" y="121.7" width="5.68" height="5.66"/><rect class="cls-31" x="174.12" y="121.7" width="5.68" height="5.66"/><rect x="168.44" y="121.7" width="5.68" height="5.66"/><rect x="162.76" y="121.7" width="5.68" height="5.66"/><rect x="157.08" y="121.7" width="5.68" height="5.66"/><rect x="151.4" y="121.7" width="5.68" height="5.66"/><rect class="cls-24" x="145.71" y="121.7" width="5.68" height="5.66"/><rect class="cls-4" x="140.03" y="121.7" width="5.68" height="5.66"/><rect class="cls-17" x="111.62" y="121.7" width="5.68" height="5.66"/><rect x="105.94" y="121.7" width="5.68" height="5.66"/><rect x="100.26" y="121.7" width="5.68" height="5.66"/><rect x="94.58" y="121.7" width="5.68" height="5.66"/><rect x="88.9" y="121.7" width="5.68" height="5.66"/><rect x="83.21" y="121.7" width="5.68" height="5.66"/><rect class="cls-29" x="77.53" y="121.7" width="5.68" height="5.66"/><rect class="cls-36" x="71.85" y="121.7" width="5.68" height="5.66"/><rect x="20.71" y="121.7" width="5.68" height="5.66"/><rect x="276.4" y="116.04" width="5.68" height="5.66"/><rect class="cls-41" x="185.49" y="116.04" width="5.68" height="5.66"/><rect x="179.81" y="116.04" width="5.68" height="5.66"/><rect class="cls-30" x="174.12" y="116.04" width="5.68" height="5.66"/><rect class="cls-14" x="168.44" y="116.04" width="5.68" height="5.66"/><rect x="162.76" y="116.04" width="5.68" height="5.66"/><rect x="157.08" y="116.04" width="5.68" height="5.66"/><rect x="151.4" y="116.04" width="5.68" height="5.66"/><rect x="145.71" y="116.04" width="5.68" height="5.66"/><rect x="140.03" y="116.04" width="5.68" height="5.66"/><rect x="134.35" y="116.04" width="5.68" height="5.66"/><rect x="128.67" y="116.04" width="5.68" height="5.66"/><rect x="122.99" y="116.04" width="5.68" height="5.66"/><rect class="cls-30" x="117.31" y="116.04" width="5.68" height="5.66"/><rect x="20.71" y="116.04" width="5.68" height="5.66"/><rect x="270.71" y="110.38" width="5.68" height="5.66"/><rect x="66.17" y="110.38" width="5.68" height="5.66"/><rect x="20.71" y="110.38" width="5.68" height="5.66"/><rect class="cls-29" x="270.71" y="104.72" width="5.68" height="5.66"/><rect class="cls-25" x="191.17" y="104.72" width="5.68" height="5.66"/><rect class="cls-15" x="122.99" y="104.72" width="5.68" height="5.66"/><rect class="cls-1" x="66.17" y="104.72" width="5.68" height="5.66"/><rect class="cls-31" x="26.4" y="104.72" width="5.68" height="5.66"/><rect class="cls-7" x="20.71" y="104.72" width="5.68" height="5.66"/><rect x="265.03" y="99.06" width="5.68" height="5.66"/><rect x="191.17" y="99.06" width="5.68" height="5.66"/><rect class="cls-32" x="122.99" y="99.06" width="5.68" height="5.66"/><rect class="cls-38" x="71.85" y="99.06" width="5.68" height="5.66"/><rect class="cls-27" x="32.08" y="99.06" width="5.68" height="5.66"/><rect x="26.4" y="99.06" width="5.68" height="5.66"/><rect x="265.03" y="93.4" width="5.68" height="5.66"/><rect x="191.17" y="93.4" width="5.68" height="5.66"/><rect class="cls-10" x="122.99" y="93.4" width="5.68" height="5.66"/><rect x="37.76" y="93.4" width="5.68" height="5.66"/><rect class="cls-22" x="32.08" y="93.4" width="5.68" height="5.66"/><rect class="cls-11" x="259.35" y="87.75" width="5.68" height="5.66"/><rect class="cls-32" x="191.17" y="87.75" width="5.68" height="5.66"/><rect class="cls-24" x="60.49" y="87.75" width="5.68" height="5.66"/><rect x="54.81" y="87.75" width="5.68" height="5.66"/><rect x="49.12" y="87.75" width="5.68" height="5.66"/><rect class="cls-8" x="43.44" y="87.75" width="5.68" height="5.66"/><rect x="259.35" y="82.09" width="5.68" height="5.66"/><rect class="cls-40" x="83.21" y="82.09" width="5.68" height="5.66"/><rect x="77.53" y="82.09" width="5.68" height="5.66"/><rect x="71.85" y="82.09" width="5.68" height="5.66"/><rect class="cls-35" x="66.17" y="82.09" width="5.68" height="5.66"/><rect class="cls-29" x="259.35" y="76.43" width="5.68" height="5.66"/><rect class="cls-21" x="100.26" y="76.43" width="5.68" height="5.66"/><rect x="94.58" y="76.43" width="5.68" height="5.66"/><rect x="88.9" y="76.43" width="5.68" height="5.66"/><rect class="cls-36" x="429.81" y="70.77" width="5.68" height="5.66"/><rect class="cls-7" x="253.67" y="70.77" width="5.68" height="5.66"/><rect class="cls-13" x="140.03" y="70.77" width="5.68" height="5.66"/><rect class="cls-11" x="134.35" y="70.77" width="5.68" height="5.66"/><rect x="128.67" y="70.77" width="5.68" height="5.66"/><rect x="122.99" y="70.77" width="5.68" height="5.66"/><rect x="117.31" y="70.77" width="5.68" height="5.66"/><rect x="111.62" y="70.77" width="5.68" height="5.66"/><rect class="cls-10" x="105.94" y="70.77" width="5.68" height="5.66"/><rect class="cls-42" x="424.12" y="65.11" width="5.68" height="5.66"/><rect x="299.12" y="65.11" width="5.68" height="5.66"/><rect class="cls-41" x="253.67" y="65.11" width="5.68" height="5.66"/><rect class="cls-17" x="185.49" y="65.11" width="5.68" height="5.66"/><rect x="179.81" y="65.11" width="5.68" height="5.66"/><rect x="174.12" y="65.11" width="5.68" height="5.66"/><rect x="168.44" y="65.11" width="5.68" height="5.66"/><rect x="162.76" y="65.11" width="5.68" height="5.66"/><rect x="157.08" y="65.11" width="5.68" height="5.66"/><rect class="cls-18" x="151.4" y="65.11" width="5.68" height="5.66"/><rect class="cls-40" x="145.71" y="65.11" width="5.68" height="5.66"/><rect class="cls-13" x="469.58" y="59.45" width="5.68" height="5.66"/><rect class="cls-24" x="463.9" y="59.45" width="5.68" height="5.66"/><rect x="458.21" y="59.45" width="5.68" height="5.66"/><rect x="452.53" y="59.45" width="5.68" height="5.66"/><rect x="446.85" y="59.45" width="5.68" height="5.66"/><rect x="441.17" y="59.45" width="5.68" height="5.66"/><rect x="435.49" y="59.45" width="5.68" height="5.66"/><rect x="429.81" y="59.45" width="5.68" height="5.66"/><rect class="cls-35" x="424.12" y="59.45" width="5.68" height="5.66"/><rect class="cls-29" x="418.44" y="59.45" width="5.68" height="5.66"/><rect x="304.81" y="59.45" width="5.68" height="5.66"/><rect class="cls-37" x="213.9" y="59.45" width="5.68" height="5.66"/><rect x="208.21" y="59.45" width="5.68" height="5.66"/><rect x="202.53" y="59.45" width="5.68" height="5.66"/><rect x="196.85" y="59.45" width="5.68" height="5.66"/><rect class="cls-8" x="191.17" y="59.45" width="5.68" height="5.66"/><rect class="cls-3" x="509.35" y="53.79" width="5.68" height="5.66"/><rect x="503.67" y="53.79" width="5.68" height="5.66"/><rect x="497.99" y="53.79" width="5.68" height="5.66"/><rect x="492.31" y="53.79" width="5.68" height="5.66"/><rect x="486.62" y="53.79" width="5.68" height="5.66"/><rect class="cls-42" x="480.94" y="53.79" width="5.68" height="5.66"/><rect class="cls-43" x="475.26" y="53.79" width="5.68" height="5.66"/><rect x="412.76" y="53.79" width="5.68" height="5.66"/><rect class="cls-42" x="310.49" y="53.79" width="5.68" height="5.66"/><rect class="cls-41" x="304.81" y="53.79" width="5.68" height="5.66"/><rect class="cls-38" x="276.4" y="53.79" width="5.68" height="5.66"/><rect class="cls-29" x="253.67" y="53.79" width="5.68" height="5.66"/><rect x="247.99" y="53.79" width="5.68" height="5.66"/><rect x="242.31" y="53.79" width="5.68" height="5.66"/><rect x="236.62" y="53.79" width="5.68" height="5.66"/><rect x="230.94" y="53.79" width="5.68" height="5.66"/><rect x="225.26" y="53.79" width="5.68" height="5.66"/><rect x="219.58" y="53.79" width="5.68" height="5.66"/><rect class="cls-16" x="213.9" y="53.79" width="5.68" height="5.66"/><rect class="cls-36" x="549.12" y="48.13" width="5.68" height="5.66"/><rect x="543.44" y="48.13" width="5.68" height="5.66"/><rect x="537.76" y="48.13" width="5.68" height="5.66"/><rect x="532.08" y="48.13" width="5.68" height="5.66"/><rect x="526.4" y="48.13" width="5.68" height="5.66"/><rect class="cls-28" x="520.71" y="48.13" width="5.68" height="5.66"/><rect class="cls-37" x="515.03" y="48.13" width="5.68" height="5.66"/><rect class="cls-35" x="407.08" y="48.13" width="5.68" height="5.66"/><rect x="401.4" y="48.13" width="5.68" height="5.66"/><rect class="cls-7" x="310.49" y="48.13" width="5.68" height="5.66"/><rect x="299.12" y="48.13" width="5.68" height="5.66"/><rect class="cls-40" x="293.44" y="48.13" width="5.68" height="5.66"/><rect class="cls-27" x="287.76" y="48.13" width="5.68" height="5.66"/><rect class="cls-12" x="282.08" y="48.13" width="5.68" height="5.66"/><rect class="cls-12" x="270.71" y="48.13" width="5.68" height="5.66"/><rect x="265.03" y="48.13" width="5.68" height="5.66"/><rect x="259.35" y="48.13" width="5.68" height="5.66"/><rect class="cls-18" x="213.9" y="48.13" width="5.68" height="5.66"/><rect x="208.21" y="48.13" width="5.68" height="5.66"/><rect class="cls-2" x="202.53" y="48.13" width="5.68" height="5.66"/><rect class="cls-9" x="577.53" y="42.47" width="5.68" height="5.66"/><rect class="cls-10" x="571.85" y="42.47" width="5.68" height="5.66"/><rect x="566.17" y="42.47" width="5.68" height="5.66"/><rect x="560.49" y="42.47" width="5.68" height="5.66"/><rect x="554.81" y="42.47" width="5.68" height="5.66"/><rect x="549.12" y="42.47" width="5.68" height="5.66"/><rect class="cls-2" x="543.44" y="42.47" width="5.68" height="5.66"/><rect class="cls-21" x="401.4" y="42.47" width="5.68" height="5.66"/><rect x="395.71" y="42.47" width="5.68" height="5.66"/><rect class="cls-7" x="390.03" y="42.47" width="5.68" height="5.66"/><rect class="cls-43" x="310.49" y="42.47" width="5.68" height="5.66"/><rect x="304.81" y="42.47" width="5.68" height="5.66"/><rect class="cls-37" x="299.12" y="42.47" width="5.68" height="5.66"/><rect x="265.03" y="42.47" width="5.68" height="5.66"/><rect x="202.53" y="42.47" width="5.68" height="5.66"/><rect class="cls-34" x="196.85" y="42.47" width="5.68" height="5.66"/><rect class="cls-39" x="611.62" y="36.81" width="5.68" height="5.66"/><rect class="cls-10" x="605.94" y="36.81" width="5.68" height="5.66"/><rect x="600.26" y="36.81" width="5.68" height="5.66"/><rect x="594.58" y="36.81" width="5.68" height="5.66"/><rect x="588.9" y="36.81" width="5.68" height="5.66"/><rect class="cls-18" x="583.21" y="36.81" width="5.68" height="5.66"/><rect class="cls-17" x="390.03" y="36.81" width="5.68" height="5.66"/><rect x="384.35" y="36.81" width="5.68" height="5.66"/><rect x="270.71" y="36.81" width="5.68" height="5.66"/><rect x="191.17" y="36.81" width="5.68" height="5.66"/><rect x="622.99" y="31.15" width="5.68" height="5.66"/><rect class="cls-22" x="617.31" y="31.15" width="5.68" height="5.66"/><rect class="cls-9" x="611.62" y="31.15" width="5.68" height="5.66"/><rect x="378.67" y="31.15" width="5.68" height="5.66"/><rect class="cls-37" x="372.99" y="31.15" width="5.68" height="5.66"/><rect x="185.49" y="31.15" width="5.68" height="5.66"/><rect class="cls-22" x="372.99" y="25.5" width="5.68" height="5.66"/><rect class="cls-34" x="367.31" y="25.5" width="5.68" height="5.66"/><rect x="270.71" y="25.5" width="5.68" height="5.66"/><rect x="185.49" y="25.5" width="5.68" height="5.66"/><rect x="361.62" y="19.84" width="5.68" height="5.66"/><rect x="270.71" y="19.84" width="5.68" height="5.66"/><rect class="cls-17" x="191.17" y="19.84" width="5.68" height="5.66"/><rect class="cls-5" x="185.49" y="19.84" width="5.68" height="5.66"/><rect x="355.94" y="14.18" width="5.68" height="5.66"/><rect class="cls-27" x="350.26" y="14.18" width="5.68" height="5.66"/><rect class="cls-32" x="270.71" y="14.18" width="5.68" height="5.66"/><rect class="cls-20" x="208.21" y="14.18" width="5.68" height="5.66"/><rect class="cls-29" x="202.53" y="14.18" width="5.68" height="5.66"/><rect x="196.85" y="14.18" width="5.68" height="5.66"/><rect class="cls-41" x="191.17" y="14.18" width="5.68" height="5.66"/><rect class="cls-40" x="350.26" y="8.52" width="5.68" height="5.66"/><rect x="344.58" y="8.52" width="5.68" height="5.66"/><rect x="338.9" y="8.52" width="5.68" height="5.66"/><rect class="cls-1" x="333.21" y="8.52" width="5.68" height="5.66"/><rect class="cls-14" x="242.31" y="8.52" width="5.68" height="5.66"/><rect x="236.62" y="8.52" width="5.68" height="5.66"/><rect x="230.94" y="8.52" width="5.68" height="5.66"/><rect x="225.26" y="8.52" width="5.68" height="5.66"/><rect class="cls-11" x="219.58" y="8.52" width="5.68" height="5.66"/><rect class="cls-13" x="213.9" y="8.52" width="5.68" height="5.66"/><rect class="cls-6" x="327.53" y="2.86" width="5.68" height="5.66"/><rect class="cls-2" x="321.85" y="2.86" width="5.68" height="5.66"/><rect class="cls-2" x="316.17" y="2.86" width="5.68" height="5.66"/><rect class="cls-2" x="310.49" y="2.86" width="5.68" height="5.66"/><rect class="cls-40" x="304.81" y="2.86" width="5.68" height="5.66"/><rect class="cls-12" x="299.12" y="2.86" width="5.68" height="5.66"/><rect class="cls-12" x="293.44" y="2.86" width="5.68" height="5.66"/><rect class="cls-12" x="287.76" y="2.86" width="5.68" height="5.66"/><rect class="cls-17" x="282.08" y="2.86" width="5.68" height="5.66"/><rect x="276.4" y="2.86" width="5.68" height="5.66"/><rect x="270.71" y="2.86" width="5.68" height="5.66"/><rect x="265.03" y="2.86" width="5.68" height="5.66"/><rect x="259.35" y="2.86" width="5.68" height="5.66"/><rect x="253.67" y="2.86" width="5.68" height="5.66"/><rect class="cls-34" x="247.99" y="2.86" width="5.68" height="5.66"/></svg>