<?xml version="1.0" encoding="UTF-8"?><svg id="Ebene_1" xmlns="http://www.w3.org/2000/svg" viewBox="0 0 469.79 265.53"><defs><style>.cls-1{fill:#6f6f6f;}.cls-2{fill:#5f5f5f;}.cls-3{fill:#4f4f4f;}.cls-4{fill:#7b7b7b;}.cls-5{fill:#434343;}.cls-6{fill:#8b8b8b;}.cls-7{fill:#838383;}.cls-8{fill:#777;}.cls-9{fill:#a7a7a7;}.cls-10{fill:#272727;}.cls-11{fill:#3f3f3f;}.cls-12{fill:#9f9f9f;}.cls-13{fill:#8f8f8f;}.cls-14{fill:#131313;}.cls-15{fill:#5b5b5b;}.cls-16{fill:#9b9b9b;}.cls-17{fill:#535353;}.cls-18{fill:#2f2f2f;}.cls-19{fill:#171717;}.cls-20{fill:#3b3b3b;}.cls-21{fill:#1f1f1f;}.cls-22{fill:#636363;}.cls-23{fill:#373737;}.cls-24{fill:#575757;}.cls-25{fill:#878787;}.cls-26{fill:#2b2b2b;}.cls-27{fill:#030303;}.cls-28{fill:#333;}.cls-29{fill:#474747;}.cls-30{fill:#0f0f0f;}.cls-31{fill:#1b1b1b;}.cls-32{fill:#0b0b0b;}.cls-33{fill:#232323;}.cls-34{fill:#6b6b6b;}.cls-35{fill:#a3a3a3;}.cls-36{fill:#ababab;}.cls-37{fill:#7f7f7f;}.cls-38{fill:#4b4b4b;}.cls-39{fill:#070707;}.cls-40{fill:#676767;}</style></defs><rect class="cls-13" x="174.93" y="256.18" width="4.22" height="5.89"/><rect class="cls-31" x="170.72" y="256.18" width="4.22" height="5.89"/><rect x="166.5" y="256.18" width="4.22" height="5.89"/><rect x="162.28" y="256.18" width="4.22" height="5.89"/><rect x="158.06" y="256.18" width="4.22" height="5.89"/><rect x="153.84" y="256.18" width="4.22" height="5.89"/><rect x="149.63" y="256.18" width="4.22" height="5.89"/><rect x="145.41" y="256.18" width="4.22" height="5.89"/><rect x="141.19" y="256.18" width="4.22" height="5.89"/><rect x="136.97" y="256.18" width="4.22" height="5.89"/><rect x="132.75" y="256.18" width="4.22" height="5.89"/><rect x="128.53" y="256.18" width="4.22" height="5.89"/><rect x="124.32" y="256.18" width="4.22" height="5.89"/><rect x="120.1" y="256.18" width="4.22" height="5.89"/><rect x="115.88" y="256.18" width="4.22" height="5.89"/><rect x="111.66" y="256.18" width="4.22" height="5.89"/><rect class="cls-25" x="204.46" y="250.3" width="4.22" height="5.89"/><rect class="cls-30" x="200.24" y="250.3" width="4.22" height="5.89"/><rect x="196.03" y="250.3" width="4.22" height="5.89"/><rect x="191.81" y="250.3" width="4.22" height="5.89"/><rect x="187.59" y="250.3" width="4.22" height="5.89"/><rect class="cls-14" x="183.37" y="250.3" width="4.22" height="5.89"/><rect class="cls-1" x="179.15" y="250.3" width="4.22" height="5.89"/><rect x="128.53" y="250.3" width="4.22" height="5.89"/><rect class="cls-18" x="124.32" y="250.3" width="4.22" height="5.89"/><rect class="cls-39" x="107.44" y="250.3" width="4.22" height="5.89"/><rect x="103.23" y="250.3" width="4.22" height="5.89"/><rect x="99.01" y="250.3" width="4.22" height="5.89"/><rect class="cls-24" x="225.55" y="244.41" width="4.22" height="5.89"/><rect x="221.33" y="244.41" width="4.22" height="5.89"/><rect x="217.12" y="244.41" width="4.22" height="5.89"/><rect x="212.9" y="244.41" width="4.22" height="5.89"/><rect class="cls-11" x="208.68" y="244.41" width="4.22" height="5.89"/><rect class="cls-13" x="132.75" y="244.41" width="4.22" height="5.89"/><rect class="cls-17" x="128.53" y="244.41" width="4.22" height="5.89"/><rect class="cls-33" x="103.23" y="244.41" width="4.22" height="5.89"/><rect x="99.01" y="244.41" width="4.22" height="5.89"/><rect class="cls-20" x="94.79" y="244.41" width="4.22" height="5.89"/><rect x="90.57" y="244.41" width="4.22" height="5.89"/><rect class="cls-40" x="86.35" y="244.41" width="4.22" height="5.89"/><rect class="cls-7" x="246.64" y="238.52" width="4.22" height="5.89"/><rect x="242.43" y="238.52" width="4.22" height="5.89"/><rect x="238.21" y="238.52" width="4.22" height="5.89"/><rect x="233.99" y="238.52" width="4.22" height="5.89"/><rect class="cls-24" x="229.77" y="238.52" width="4.22" height="5.89"/><rect class="cls-39" x="158.06" y="238.52" width="4.22" height="5.89"/><rect x="132.75" y="238.52" width="4.22" height="5.89"/><rect class="cls-17" x="120.1" y="238.52" width="4.22" height="5.89"/><rect x="115.88" y="238.52" width="4.22" height="5.89"/><rect x="111.66" y="238.52" width="4.22" height="5.89"/><rect class="cls-3" x="107.44" y="238.52" width="4.22" height="5.89"/><rect class="cls-20" x="86.35" y="238.52" width="4.22" height="5.89"/><rect x="82.13" y="238.52" width="4.22" height="5.89"/><rect class="cls-9" x="267.73" y="232.64" width="4.22" height="5.89"/><rect class="cls-10" x="263.52" y="232.64" width="4.22" height="5.89"/><rect x="259.3" y="232.64" width="4.22" height="5.89"/><rect x="255.08" y="232.64" width="4.22" height="5.89"/><rect class="cls-31" x="250.86" y="232.64" width="4.22" height="5.89"/><rect class="cls-9" x="158.06" y="232.64" width="4.22" height="5.89"/><rect x="153.84" y="232.64" width="4.22" height="5.89"/><rect x="132.75" y="232.64" width="4.22" height="5.89"/><rect x="128.53" y="232.64" width="4.22" height="5.89"/><rect class="cls-14" x="124.32" y="232.64" width="4.22" height="5.89"/><rect x="77.92" y="232.64" width="4.22" height="5.89"/><rect class="cls-4" x="461.77" y="226.75" width="4.22" height="5.89"/><rect x="457.55" y="226.75" width="4.22" height="5.89"/><rect x="453.33" y="226.75" width="4.22" height="5.89"/><rect x="449.12" y="226.75" width="4.22" height="5.89"/><rect x="444.9" y="226.75" width="4.22" height="5.89"/><rect x="440.68" y="226.75" width="4.22" height="5.89"/><rect x="436.46" y="226.75" width="4.22" height="5.89"/><rect x="432.24" y="226.75" width="4.22" height="5.89"/><rect x="428.03" y="226.75" width="4.22" height="5.89"/><rect x="423.81" y="226.75" width="4.22" height="5.89"/><rect x="419.59" y="226.75" width="4.22" height="5.89"/><rect x="415.37" y="226.75" width="4.22" height="5.89"/><rect class="cls-21" x="411.15" y="226.75" width="4.22" height="5.89"/><rect class="cls-11" x="406.93" y="226.75" width="4.22" height="5.89"/><rect class="cls-2" x="402.72" y="226.75" width="4.22" height="5.89"/><rect class="cls-37" x="398.5" y="226.75" width="4.22" height="5.89"/><rect class="cls-12" x="394.28" y="226.75" width="4.22" height="5.89"/><rect class="cls-12" x="305.7" y="226.75" width="4.22" height="5.89"/><rect class="cls-2" x="301.48" y="226.75" width="4.22" height="5.89"/><rect class="cls-26" x="297.26" y="226.75" width="4.22" height="5.89"/><rect x="293.04" y="226.75" width="4.22" height="5.89"/><rect x="288.83" y="226.75" width="4.22" height="5.89"/><rect x="284.61" y="226.75" width="4.22" height="5.89"/><rect x="280.39" y="226.75" width="4.22" height="5.89"/><rect x="276.17" y="226.75" width="4.22" height="5.89"/><rect class="cls-18" x="271.95" y="226.75" width="4.22" height="5.89"/><rect class="cls-12" x="267.73" y="226.75" width="4.22" height="5.89"/><rect class="cls-27" x="166.5" y="226.75" width="4.22" height="5.89"/><rect class="cls-6" x="162.28" y="226.75" width="4.22" height="5.89"/><rect x="153.84" y="226.75" width="4.22" height="5.89"/><rect x="141.19" y="226.75" width="4.22" height="5.89"/><rect x="136.97" y="226.75" width="4.22" height="5.89"/><rect class="cls-37" x="77.92" y="226.75" width="4.22" height="5.89"/><rect x="73.7" y="226.75" width="4.22" height="5.89"/><rect class="cls-12" x="390.06" y="220.86" width="4.22" height="5.89"/><rect class="cls-37" x="385.84" y="220.86" width="4.22" height="5.89"/><rect class="cls-40" x="381.63" y="220.86" width="4.22" height="5.89"/><rect class="cls-2" x="377.41" y="220.86" width="4.22" height="5.89"/><rect class="cls-11" x="373.19" y="220.86" width="4.22" height="5.89"/><rect class="cls-20" x="368.97" y="220.86" width="4.22" height="5.89"/><rect class="cls-21" x="364.75" y="220.86" width="4.22" height="5.89"/><rect class="cls-31" x="360.53" y="220.86" width="4.22" height="5.89"/><rect x="356.32" y="220.86" width="4.22" height="5.89"/><rect x="352.1" y="220.86" width="4.22" height="5.89"/><rect x="347.88" y="220.86" width="4.22" height="5.89"/><rect x="343.66" y="220.86" width="4.22" height="5.89"/><rect x="339.44" y="220.86" width="4.22" height="5.89"/><rect x="335.23" y="220.86" width="4.22" height="5.89"/><rect class="cls-14" x="331.01" y="220.86" width="4.22" height="5.89"/><rect class="cls-21" x="326.79" y="220.86" width="4.22" height="5.89"/><rect class="cls-11" x="322.57" y="220.86" width="4.22" height="5.89"/><rect class="cls-17" x="318.35" y="220.86" width="4.22" height="5.89"/><rect class="cls-34" x="314.13" y="220.86" width="4.22" height="5.89"/><rect class="cls-13" x="309.92" y="220.86" width="4.22" height="5.89"/><rect class="cls-10" x="162.28" y="220.86" width="4.22" height="5.89"/><rect x="158.06" y="220.86" width="4.22" height="5.89"/><rect class="cls-39" x="153.84" y="220.86" width="4.22" height="5.89"/><rect x="149.63" y="220.86" width="4.22" height="5.89"/><rect class="cls-27" x="145.41" y="220.86" width="4.22" height="5.89"/><rect x="73.7" y="220.86" width="4.22" height="5.89"/><rect x="263.52" y="214.98" width="4.22" height="5.89"/><rect class="cls-30" x="158.06" y="214.98" width="4.22" height="5.89"/><rect x="153.84" y="214.98" width="4.22" height="5.89"/><rect class="cls-33" x="149.63" y="214.98" width="4.22" height="5.89"/><rect x="73.7" y="214.98" width="4.22" height="5.89"/><rect x="263.52" y="209.09" width="4.22" height="5.89"/><rect x="153.84" y="209.09" width="4.22" height="5.89"/><rect x="77.92" y="209.09" width="4.22" height="5.89"/><rect class="cls-29" x="73.7" y="209.09" width="4.22" height="5.89"/><rect x="263.52" y="203.2" width="4.22" height="5.89"/><rect class="cls-27" x="153.84" y="203.2" width="4.22" height="5.89"/><rect class="cls-13" x="111.66" y="203.2" width="4.22" height="5.89"/><rect x="107.44" y="203.2" width="4.22" height="5.89"/><rect x="103.23" y="203.2" width="4.22" height="5.89"/><rect x="99.01" y="203.2" width="4.22" height="5.89"/><rect x="94.79" y="203.2" width="4.22" height="5.89"/><rect class="cls-17" x="90.57" y="203.2" width="4.22" height="5.89"/><rect class="cls-37" x="86.35" y="203.2" width="4.22" height="5.89"/><rect class="cls-2" x="82.13" y="203.2" width="4.22" height="5.89"/><rect class="cls-15" x="77.92" y="203.2" width="4.22" height="5.89"/><rect class="cls-26" x="73.7" y="203.2" width="4.22" height="5.89"/><rect x="69.48" y="203.2" width="4.22" height="5.89"/><rect x="65.26" y="203.2" width="4.22" height="5.89"/><rect class="cls-27" x="61.04" y="203.2" width="4.22" height="5.89"/><rect class="cls-37" x="162.28" y="197.32" width="4.22" height="5.89"/><rect class="cls-27" x="149.63" y="197.32" width="4.22" height="5.89"/><rect x="128.53" y="197.32" width="4.22" height="5.89"/><rect x="124.32" y="197.32" width="4.22" height="5.89"/><rect x="120.1" y="197.32" width="4.22" height="5.89"/><rect class="cls-33" x="115.88" y="197.32" width="4.22" height="5.89"/><rect class="cls-31" x="56.83" y="197.32" width="4.22" height="5.89"/><rect x="52.61" y="197.32" width="4.22" height="5.89"/><rect x="174.93" y="191.43" width="4.22" height="5.89"/><rect class="cls-29" x="170.72" y="191.43" width="4.22" height="5.89"/><rect class="cls-3" x="162.28" y="191.43" width="4.22" height="5.89"/><rect x="158.06" y="191.43" width="4.22" height="5.89"/><rect x="145.41" y="191.43" width="4.22" height="5.89"/><rect x="141.19" y="191.43" width="4.22" height="5.89"/><rect class="cls-32" x="136.97" y="191.43" width="4.22" height="5.89"/><rect class="cls-31" x="48.39" y="191.43" width="4.22" height="5.89"/><rect class="cls-39" x="44.17" y="191.43" width="4.22" height="5.89"/><rect class="cls-20" x="170.72" y="185.55" width="4.22" height="5.89"/><rect x="166.5" y="185.55" width="4.22" height="5.89"/><rect class="cls-27" x="158.06" y="185.55" width="4.22" height="5.89"/><rect class="cls-33" x="153.84" y="185.55" width="4.22" height="5.89"/><rect x="145.41" y="185.55" width="4.22" height="5.89"/><rect x="44.17" y="185.55" width="4.22" height="5.89"/><rect x="263.52" y="179.66" width="4.22" height="5.89"/><rect x="162.28" y="179.66" width="4.22" height="5.89"/><rect class="cls-32" x="158.06" y="179.66" width="4.22" height="5.89"/><rect x="153.84" y="179.66" width="4.22" height="5.89"/><rect x="149.63" y="179.66" width="4.22" height="5.89"/><rect class="cls-35" x="145.41" y="179.66" width="4.22" height="5.89"/><rect x="44.17" y="179.66" width="4.22" height="5.89"/><rect class="cls-40" x="267.73" y="173.77" width="4.22" height="5.89"/><rect x="263.52" y="173.77" width="4.22" height="5.89"/><rect class="cls-11" x="158.06" y="173.77" width="4.22" height="5.89"/><rect x="153.84" y="173.77" width="4.22" height="5.89"/><rect x="149.63" y="173.77" width="4.22" height="5.89"/><rect x="48.39" y="173.77" width="4.22" height="5.89"/><rect class="cls-28" x="44.17" y="173.77" width="4.22" height="5.89"/><rect class="cls-33" x="267.73" y="167.89" width="4.22" height="5.89"/><rect class="cls-28" x="263.52" y="167.89" width="4.22" height="5.89"/><rect class="cls-13" x="153.84" y="167.89" width="4.22" height="5.89"/><rect x="149.63" y="167.89" width="4.22" height="5.89"/><rect x="52.61" y="167.89" width="4.22" height="5.89"/><rect class="cls-32" x="48.39" y="167.89" width="4.22" height="5.89"/><rect x="267.73" y="162" width="4.22" height="5.89"/><rect class="cls-2" x="263.52" y="162" width="4.22" height="5.89"/><rect x="149.63" y="162" width="4.22" height="5.89"/><rect x="145.41" y="162" width="4.22" height="5.89"/><rect class="cls-1" x="77.92" y="162" width="4.22" height="5.89"/><rect class="cls-39" x="73.7" y="162" width="4.22" height="5.89"/><rect x="65.26" y="162" width="4.22" height="5.89"/><rect x="61.04" y="162" width="4.22" height="5.89"/><rect x="56.83" y="162" width="4.22" height="5.89"/><rect x="267.73" y="156.11" width="4.22" height="5.89"/><rect class="cls-37" x="263.52" y="156.11" width="4.22" height="5.89"/><rect x="145.41" y="156.11" width="4.22" height="5.89"/><rect x="141.19" y="156.11" width="4.22" height="5.89"/><rect class="cls-5" x="136.97" y="156.11" width="4.22" height="5.89"/><rect x="115.88" y="156.11" width="4.22" height="5.89"/><rect x="111.66" y="156.11" width="4.22" height="5.89"/><rect x="107.44" y="156.11" width="4.22" height="5.89"/><rect x="103.23" y="156.11" width="4.22" height="5.89"/><rect x="99.01" y="156.11" width="4.22" height="5.89"/><rect x="94.79" y="156.11" width="4.22" height="5.89"/><rect x="90.57" y="156.11" width="4.22" height="5.89"/><rect class="cls-11" x="86.35" y="156.11" width="4.22" height="5.89"/><rect class="cls-25" x="82.13" y="156.11" width="4.22" height="5.89"/><rect class="cls-19" x="52.61" y="156.11" width="4.22" height="5.89"/><rect x="48.39" y="156.11" width="4.22" height="5.89"/><rect class="cls-8" x="44.17" y="156.11" width="4.22" height="5.89"/><rect x="267.73" y="150.23" width="4.22" height="5.89"/><rect class="cls-37" x="263.52" y="150.23" width="4.22" height="5.89"/><rect class="cls-39" x="145.41" y="150.23" width="4.22" height="5.89"/><rect x="141.19" y="150.23" width="4.22" height="5.89"/><rect x="136.97" y="150.23" width="4.22" height="5.89"/><rect x="132.75" y="150.23" width="4.22" height="5.89"/><rect x="128.53" y="150.23" width="4.22" height="5.89"/><rect x="124.32" y="150.23" width="4.22" height="5.89"/><rect class="cls-33" x="120.1" y="150.23" width="4.22" height="5.89"/><rect class="cls-32" x="44.17" y="150.23" width="4.22" height="5.89"/><rect x="267.73" y="144.34" width="4.22" height="5.89"/><rect class="cls-37" x="263.52" y="144.34" width="4.22" height="5.89"/><rect x="141.19" y="144.34" width="4.22" height="5.89"/><rect class="cls-19" x="48.39" y="144.34" width="4.22" height="5.89"/><rect x="39.95" y="144.34" width="4.22" height="5.89"/><rect class="cls-16" x="145.41" y="138.45" width="4.22" height="5.89"/><rect x="141.19" y="138.45" width="4.22" height="5.89"/><rect x="48.39" y="138.45" width="4.22" height="5.89"/><rect class="cls-29" x="39.95" y="138.45" width="4.22" height="5.89"/><rect x="35.73" y="138.45" width="4.22" height="5.89"/><rect class="cls-12" x="145.41" y="132.57" width="4.22" height="5.89"/><rect x="141.19" y="132.57" width="4.22" height="5.89"/><rect x="35.73" y="132.57" width="4.22" height="5.89"/><rect x="141.19" y="126.68" width="4.22" height="5.89"/><rect x="35.73" y="126.68" width="4.22" height="5.89"/><rect class="cls-27" x="141.19" y="120.8" width="4.22" height="5.89"/><rect class="cls-20" x="136.97" y="120.8" width="4.22" height="5.89"/><rect class="cls-23" x="39.95" y="120.8" width="4.22" height="5.89"/><rect class="cls-39" x="35.73" y="120.8" width="4.22" height="5.89"/><rect x="136.97" y="114.91" width="4.22" height="5.89"/><rect x="39.95" y="114.91" width="4.22" height="5.89"/><rect x="132.75" y="109.02" width="4.22" height="5.89"/><rect class="cls-24" x="103.23" y="109.02" width="4.22" height="5.89"/><rect x="99.01" y="109.02" width="4.22" height="5.89"/><rect x="94.79" y="109.02" width="4.22" height="5.89"/><rect x="90.57" y="109.02" width="4.22" height="5.89"/><rect x="86.35" y="109.02" width="4.22" height="5.89"/><rect x="82.13" y="109.02" width="4.22" height="5.89"/><rect x="77.92" y="109.02" width="4.22" height="5.89"/><rect x="73.7" y="109.02" width="4.22" height="5.89"/><rect x="69.48" y="109.02" width="4.22" height="5.89"/><rect x="65.26" y="109.02" width="4.22" height="5.89"/><rect x="61.04" y="109.02" width="4.22" height="5.89"/><rect x="56.83" y="109.02" width="4.22" height="5.89"/><rect x="52.61" y="109.02" width="4.22" height="5.89"/><rect x="48.39" y="109.02" width="4.22" height="5.89"/><rect x="44.17" y="109.02" width="4.22" height="5.89"/><rect x="39.95" y="109.02" width="4.22" height="5.89"/><rect x="35.73" y="109.02" width="4.22" height="5.89"/><rect class="cls-4" x="31.52" y="109.02" width="4.22" height="5.89"/><rect class="cls-15" x="128.53" y="103.14" width="4.22" height="5.89"/><rect x="124.32" y="103.14" width="4.22" height="5.89"/><rect x="120.1" y="103.14" width="4.22" height="5.89"/><rect x="115.88" y="103.14" width="4.22" height="5.89"/><rect x="111.66" y="103.14" width="4.22" height="5.89"/><rect class="cls-28" x="107.44" y="103.14" width="4.22" height="5.89"/><rect class="cls-27" x="27.3" y="103.14" width="4.22" height="5.89"/><rect x="23.08" y="103.14" width="4.22" height="5.89"/><rect class="cls-40" x="305.7" y="97.25" width="4.22" height="5.89"/><rect x="301.48" y="97.25" width="4.22" height="5.89"/><rect x="297.26" y="97.25" width="4.22" height="5.89"/><rect x="293.04" y="97.25" width="4.22" height="5.89"/><rect x="288.83" y="97.25" width="4.22" height="5.89"/><rect x="284.61" y="97.25" width="4.22" height="5.89"/><rect class="cls-28" x="280.39" y="97.25" width="4.22" height="5.89"/><rect class="cls-2" x="276.17" y="97.25" width="4.22" height="5.89"/><rect class="cls-37" x="271.95" y="97.25" width="4.22" height="5.89"/><rect class="cls-37" x="267.73" y="97.25" width="4.22" height="5.89"/><rect class="cls-3" x="263.52" y="97.25" width="4.22" height="5.89"/><rect x="259.3" y="97.25" width="4.22" height="5.89"/><rect x="255.08" y="97.25" width="4.22" height="5.89"/><rect class="cls-19" x="250.86" y="97.25" width="4.22" height="5.89"/><rect x="115.88" y="97.25" width="4.22" height="5.89"/><rect class="cls-19" x="111.66" y="97.25" width="4.22" height="5.89"/><rect x="18.86" y="97.25" width="4.22" height="5.89"/><rect class="cls-2" x="343.66" y="91.36" width="4.22" height="5.89"/><rect class="cls-14" x="339.44" y="91.36" width="4.22" height="5.89"/><rect x="335.23" y="91.36" width="4.22" height="5.89"/><rect x="331.01" y="91.36" width="4.22" height="5.89"/><rect x="326.79" y="91.36" width="4.22" height="5.89"/><rect x="322.57" y="91.36" width="4.22" height="5.89"/><rect x="318.35" y="91.36" width="4.22" height="5.89"/><rect class="cls-23" x="314.13" y="91.36" width="4.22" height="5.89"/><rect class="cls-13" x="309.92" y="91.36" width="4.22" height="5.89"/><rect x="246.64" y="91.36" width="4.22" height="5.89"/><rect x="242.43" y="91.36" width="4.22" height="5.89"/><rect x="115.88" y="91.36" width="4.22" height="5.89"/><rect class="cls-2" x="18.86" y="91.36" width="4.22" height="5.89"/><rect x="14.64" y="91.36" width="4.22" height="5.89"/><rect class="cls-34" x="377.41" y="85.48" width="4.22" height="5.89"/><rect class="cls-32" x="373.19" y="85.48" width="4.22" height="5.89"/><rect x="368.97" y="85.48" width="4.22" height="5.89"/><rect x="364.75" y="85.48" width="4.22" height="5.89"/><rect x="360.53" y="85.48" width="4.22" height="5.89"/><rect x="356.32" y="85.48" width="4.22" height="5.89"/><rect class="cls-26" x="352.1" y="85.48" width="4.22" height="5.89"/><rect class="cls-4" x="347.88" y="85.48" width="4.22" height="5.89"/><rect x="238.21" y="85.48" width="4.22" height="5.89"/><rect x="115.88" y="85.48" width="4.22" height="5.89"/><rect class="cls-8" x="23.08" y="85.48" width="4.22" height="5.89"/><rect x="14.64" y="85.48" width="4.22" height="5.89"/><rect class="cls-22" x="10.43" y="85.48" width="4.22" height="5.89"/><rect class="cls-1" x="406.93" y="79.59" width="4.22" height="5.89"/><rect class="cls-39" x="402.72" y="79.59" width="4.22" height="5.89"/><rect x="398.5" y="79.59" width="4.22" height="5.89"/><rect x="394.28" y="79.59" width="4.22" height="5.89"/><rect x="390.06" y="79.59" width="4.22" height="5.89"/><rect class="cls-31" x="385.84" y="79.59" width="4.22" height="5.89"/><rect class="cls-7" x="381.63" y="79.59" width="4.22" height="5.89"/><rect x="233.99" y="79.59" width="4.22" height="5.89"/><rect class="cls-20" x="229.77" y="79.59" width="4.22" height="5.89"/><rect x="115.88" y="79.59" width="4.22" height="5.89"/><rect class="cls-8" x="18.86" y="79.59" width="4.22" height="5.89"/><rect class="cls-36" x="14.64" y="79.59" width="4.22" height="5.89"/><rect x="10.43" y="79.59" width="4.22" height="5.89"/><rect class="cls-18" x="432.24" y="73.7" width="4.22" height="5.89"/><rect x="428.03" y="73.7" width="4.22" height="5.89"/><rect x="423.81" y="73.7" width="4.22" height="5.89"/><rect x="419.59" y="73.7" width="4.22" height="5.89"/><rect x="415.37" y="73.7" width="4.22" height="5.89"/><rect class="cls-23" x="411.15" y="73.7" width="4.22" height="5.89"/><rect class="cls-30" x="229.77" y="73.7" width="4.22" height="5.89"/><rect x="225.55" y="73.7" width="4.22" height="5.89"/><rect class="cls-11" x="128.53" y="73.7" width="4.22" height="5.89"/><rect x="115.88" y="73.7" width="4.22" height="5.89"/><rect class="cls-2" x="18.86" y="73.7" width="4.22" height="5.89"/><rect x="10.43" y="73.7" width="4.22" height="5.89"/><rect class="cls-38" x="461.77" y="67.82" width="4.22" height="5.89"/><rect x="457.55" y="67.82" width="4.22" height="5.89"/><rect x="453.33" y="67.82" width="4.22" height="5.89"/><rect x="449.12" y="67.82" width="4.22" height="5.89"/><rect x="444.9" y="67.82" width="4.22" height="5.89"/><rect class="cls-31" x="440.68" y="67.82" width="4.22" height="5.89"/><rect class="cls-7" x="436.46" y="67.82" width="4.22" height="5.89"/><rect class="cls-4" x="225.55" y="67.82" width="4.22" height="5.89"/><rect x="221.33" y="67.82" width="4.22" height="5.89"/><rect class="cls-4" x="132.75" y="67.82" width="4.22" height="5.89"/><rect x="128.53" y="67.82" width="4.22" height="5.89"/><rect x="124.32" y="67.82" width="4.22" height="5.89"/><rect x="120.1" y="67.82" width="4.22" height="5.89"/><rect x="115.88" y="67.82" width="4.22" height="5.89"/><rect x="111.66" y="67.82" width="4.22" height="5.89"/><rect class="cls-18" x="14.64" y="67.82" width="4.22" height="5.89"/><rect class="cls-39" x="10.43" y="67.82" width="4.22" height="5.89"/><rect class="cls-27" x="217.12" y="61.93" width="4.22" height="5.89"/><rect class="cls-1" x="149.63" y="61.93" width="4.22" height="5.89"/><rect x="145.41" y="61.93" width="4.22" height="5.89"/><rect x="141.19" y="61.93" width="4.22" height="5.89"/><rect class="cls-18" x="132.75" y="61.93" width="4.22" height="5.89"/><rect x="107.44" y="61.93" width="4.22" height="5.89"/><rect x="103.23" y="61.93" width="4.22" height="5.89"/><rect x="99.01" y="61.93" width="4.22" height="5.89"/><rect x="94.79" y="61.93" width="4.22" height="5.89"/><rect x="90.57" y="61.93" width="4.22" height="5.89"/><rect x="86.35" y="61.93" width="4.22" height="5.89"/><rect x="82.13" y="61.93" width="4.22" height="5.89"/><rect x="77.92" y="61.93" width="4.22" height="5.89"/><rect x="73.7" y="61.93" width="4.22" height="5.89"/><rect x="69.48" y="61.93" width="4.22" height="5.89"/><rect x="65.26" y="61.93" width="4.22" height="5.89"/><rect x="61.04" y="61.93" width="4.22" height="5.89"/><rect x="56.83" y="61.93" width="4.22" height="5.89"/><rect x="52.61" y="61.93" width="4.22" height="5.89"/><rect x="48.39" y="61.93" width="4.22" height="5.89"/><rect x="44.17" y="61.93" width="4.22" height="5.89"/><rect class="cls-27" x="39.95" y="61.93" width="4.22" height="5.89"/><rect x="18.86" y="61.93" width="4.22" height="5.89"/><rect class="cls-11" x="14.64" y="61.93" width="4.22" height="5.89"/><rect x="212.9" y="56.05" width="4.22" height="5.89"/><rect class="cls-4" x="208.68" y="56.05" width="4.22" height="5.89"/><rect class="cls-27" x="153.84" y="56.05" width="4.22" height="5.89"/><rect class="cls-36" x="149.63" y="56.05" width="4.22" height="5.89"/><rect x="86.35" y="56.05" width="4.22" height="5.89"/><rect x="77.92" y="56.05" width="4.22" height="5.89"/><rect x="73.7" y="56.05" width="4.22" height="5.89"/><rect class="cls-34" x="69.48" y="56.05" width="4.22" height="5.89"/><rect class="cls-24" x="65.26" y="56.05" width="4.22" height="5.89"/><rect x="61.04" y="56.05" width="4.22" height="5.89"/><rect x="56.83" y="56.05" width="4.22" height="5.89"/><rect x="52.61" y="56.05" width="4.22" height="5.89"/><rect x="48.39" y="56.05" width="4.22" height="5.89"/><rect x="44.17" y="56.05" width="4.22" height="5.89"/><rect x="39.95" y="56.05" width="4.22" height="5.89"/><rect x="35.73" y="56.05" width="4.22" height="5.89"/><rect x="31.52" y="56.05" width="4.22" height="5.89"/><rect x="27.3" y="56.05" width="4.22" height="5.89"/><rect x="23.08" y="56.05" width="4.22" height="5.89"/><rect x="18.86" y="56.05" width="4.22" height="5.89"/><rect class="cls-39" x="14.64" y="56.05" width="4.22" height="5.89"/><rect x="208.68" y="50.16" width="4.22" height="5.89"/><rect class="cls-18" x="204.46" y="50.16" width="4.22" height="5.89"/><rect class="cls-27" x="86.35" y="50.16" width="4.22" height="5.89"/><rect x="82.13" y="50.16" width="4.22" height="5.89"/><rect x="10.43" y="50.16" width="4.22" height="5.89"/><rect class="cls-19" x="6.21" y="50.16" width="4.22" height="5.89"/><rect class="cls-19" x="204.46" y="44.27" width="4.22" height="5.89"/><rect x="200.24" y="44.27" width="4.22" height="5.89"/><rect class="cls-39" x="86.35" y="44.27" width="4.22" height="5.89"/><rect class="cls-14" x="6.21" y="44.27" width="4.22" height="5.89"/><rect class="cls-27" x="1.99" y="44.27" width="4.22" height="5.89"/><rect x="196.03" y="38.39" width="4.22" height="5.89"/><rect class="cls-38" x="27.3" y="38.39" width="4.22" height="5.89"/><rect class="cls-14" x="23.08" y="38.39" width="4.22" height="5.89"/><rect class="cls-31" x="18.86" y="38.39" width="4.22" height="5.89"/><rect class="cls-1" x="14.64" y="38.39" width="4.22" height="5.89"/><rect x="1.99" y="38.39" width="4.22" height="5.89"/><rect class="cls-31" x="191.81" y="32.5" width="4.22" height="5.89"/><rect x="187.59" y="32.5" width="4.22" height="5.89"/><rect class="cls-28" x="183.37" y="32.5" width="4.22" height="5.89"/><rect x="39.95" y="32.5" width="4.22" height="5.89"/><rect x="35.73" y="32.5" width="4.22" height="5.89"/><rect class="cls-4" x="31.52" y="32.5" width="4.22" height="5.89"/><rect x="10.43" y="32.5" width="4.22" height="5.89"/><rect class="cls-27" x="6.21" y="32.5" width="4.22" height="5.89"/><rect x="1.99" y="32.5" width="4.22" height="5.89"/><rect class="cls-27" x="179.15" y="26.61" width="4.22" height="5.89"/><rect x="174.93" y="26.61" width="4.22" height="5.89"/><rect class="cls-31" x="170.72" y="26.61" width="4.22" height="5.89"/><rect class="cls-9" x="166.5" y="26.61" width="4.22" height="5.89"/><rect class="cls-31" x="44.17" y="26.61" width="4.22" height="5.89"/><rect class="cls-37" x="14.64" y="26.61" width="4.22" height="5.89"/><rect x="10.43" y="26.61" width="4.22" height="5.89"/><rect x="6.21" y="26.61" width="4.22" height="5.89"/><rect class="cls-12" x="166.5" y="20.73" width="4.22" height="5.89"/><rect class="cls-18" x="162.28" y="20.73" width="4.22" height="5.89"/><rect x="158.06" y="20.73" width="4.22" height="5.89"/><rect x="153.84" y="20.73" width="4.22" height="5.89"/><rect x="149.63" y="20.73" width="4.22" height="5.89"/><rect x="145.41" y="20.73" width="4.22" height="5.89"/><rect x="141.19" y="20.73" width="4.22" height="5.89"/><rect class="cls-5" x="136.97" y="20.73" width="4.22" height="5.89"/><rect x="44.17" y="20.73" width="4.22" height="5.89"/><rect x="39.95" y="20.73" width="4.22" height="5.89"/><rect x="35.73" y="20.73" width="4.22" height="5.89"/><rect x="31.52" y="20.73" width="4.22" height="5.89"/><rect x="27.3" y="20.73" width="4.22" height="5.89"/><rect class="cls-19" x="23.08" y="20.73" width="4.22" height="5.89"/><rect class="cls-3" x="18.86" y="20.73" width="4.22" height="5.89"/><rect class="cls-3" x="132.75" y="14.84" width="4.22" height="5.89"/><rect x="128.53" y="14.84" width="4.22" height="5.89"/><rect x="124.32" y="14.84" width="4.22" height="5.89"/><rect class="cls-15" x="120.1" y="14.84" width="4.22" height="5.89"/><rect class="cls-12" x="56.83" y="14.84" width="4.22" height="5.89"/><rect x="52.61" y="14.84" width="4.22" height="5.89"/><rect x="48.39" y="14.84" width="4.22" height="5.89"/><rect class="cls-14" x="115.88" y="8.95" width="4.22" height="5.89"/><rect x="111.66" y="8.95" width="4.22" height="5.89"/><rect x="107.44" y="8.95" width="4.22" height="5.89"/><rect class="cls-7" x="103.23" y="8.95" width="4.22" height="5.89"/><rect class="cls-4" x="69.48" y="8.95" width="4.22" height="5.89"/><rect x="65.26" y="8.95" width="4.22" height="5.89"/><rect x="61.04" y="8.95" width="4.22" height="5.89"/><rect class="cls-40" x="56.83" y="8.95" width="4.22" height="5.89"/><rect class="cls-21" x="99.01" y="3.07" width="4.22" height="5.89"/><rect x="94.79" y="3.07" width="4.22" height="5.89"/><rect x="90.57" y="3.07" width="4.22" height="5.89"/><rect x="86.35" y="3.07" width="4.22" height="5.89"/><rect x="82.13" y="3.07" width="4.22" height="5.89"/><rect x="77.92" y="3.07" width="4.22" height="5.89"/><rect class="cls-39" x="73.7" y="3.07" width="4.22" height="5.89"/></svg>