<?xml version="1.0" encoding="UTF-8"?><svg id="Ebene_1" xmlns="http://www.w3.org/2000/svg" viewBox="0 0 637.28 254.3"><defs><style>.cls-1{fill:#6f6f6f;}.cls-2{fill:#5f5f5f;}.cls-3{fill:#4f4f4f;}.cls-4{fill:#7b7b7b;}.cls-5{fill:#434343;}.cls-6{fill:#8b8b8b;}.cls-7{fill:#838383;}.cls-8{fill:#777;}.cls-9{fill:#a7a7a7;}.cls-10{fill:#272727;}.cls-11{fill:#3f3f3f;}.cls-12{fill:#9f9f9f;}.cls-13{fill:#8f8f8f;}.cls-14{fill:#131313;}.cls-15{fill:#5b5b5b;}.cls-16{fill:#9b9b9b;}.cls-17{fill:#535353;}.cls-18{fill:#2f2f2f;}.cls-19{fill:#171717;}.cls-20{fill:#737373;}.cls-21{fill:#3b3b3b;}.cls-22{fill:#1f1f1f;}.cls-23{fill:#636363;}.cls-24{fill:#373737;}.cls-25{fill:#575757;}.cls-26{fill:#939393;}.cls-27{fill:#878787;}.cls-28{fill:#2b2b2b;}.cls-29{fill:#030303;}.cls-30{fill:#333;}.cls-31{fill:#474747;}.cls-32{fill:#0f0f0f;}.cls-33{fill:#1b1b1b;}.cls-34{fill:#0b0b0b;}.cls-35{fill:#232323;}.cls-36{fill:#6b6b6b;}.cls-37{fill:#979797;}.cls-38{fill:#a3a3a3;}.cls-39{fill:#ababab;}.cls-40{fill:#7f7f7f;}.cls-41{fill:#4b4b4b;}.cls-42{fill:#070707;}.cls-43{fill:#676767;}</style></defs><rect class="cls-28" x="314.67" y="247.07" width="5.74" height="5.61"/><rect x="308.94" y="247.07" width="5.74" height="5.61"/><rect x="303.2" y="247.07" width="5.74" height="5.61"/><rect x="297.46" y="247.07" width="5.74" height="5.61"/><rect x="291.73" y="247.07" width="5.74" height="5.61"/><rect x="285.99" y="247.07" width="5.74" height="5.61"/><rect x="280.25" y="247.07" width="5.74" height="5.61"/><rect x="274.52" y="247.07" width="5.74" height="5.61"/><rect x="268.78" y="247.07" width="5.74" height="5.61"/><rect x="263.05" y="247.07" width="5.74" height="5.61"/><rect class="cls-16" x="257.31" y="247.07" width="5.74" height="5.61"/><rect class="cls-42" x="337.62" y="241.46" width="5.74" height="5.61"/><rect x="331.88" y="241.46" width="5.74" height="5.61"/><rect x="326.15" y="241.46" width="5.74" height="5.61"/><rect class="cls-13" x="320.41" y="241.46" width="5.74" height="5.61"/><rect class="cls-39" x="257.31" y="241.46" width="5.74" height="5.61"/><rect class="cls-14" x="251.57" y="241.46" width="5.74" height="5.61"/><rect x="245.84" y="241.46" width="5.74" height="5.61"/><rect x="240.1" y="241.46" width="5.74" height="5.61"/><rect x="234.36" y="241.46" width="5.74" height="5.61"/><rect class="cls-10" x="228.63" y="241.46" width="5.74" height="5.61"/><rect class="cls-29" x="354.83" y="235.85" width="5.74" height="5.61"/><rect x="349.09" y="235.85" width="5.74" height="5.61"/><rect class="cls-3" x="343.35" y="235.85" width="5.74" height="5.61"/><rect class="cls-41" x="268.78" y="235.85" width="5.74" height="5.61"/><rect x="251.57" y="235.85" width="5.74" height="5.61"/><rect class="cls-27" x="222.89" y="235.85" width="5.74" height="5.61"/><rect x="217.15" y="235.85" width="5.74" height="5.61"/><rect x="211.42" y="235.85" width="5.74" height="5.61"/><rect class="cls-4" x="372.04" y="230.23" width="5.74" height="5.61"/><rect x="366.3" y="230.23" width="5.74" height="5.61"/><rect class="cls-19" x="360.56" y="230.23" width="5.74" height="5.61"/><rect x="268.78" y="230.23" width="5.74" height="5.61"/><rect x="257.31" y="230.23" width="5.74" height="5.61"/><rect class="cls-26" x="211.42" y="230.23" width="5.74" height="5.61"/><rect class="cls-20" x="205.68" y="230.23" width="5.74" height="5.61"/><rect class="cls-35" x="383.51" y="224.62" width="5.74" height="5.61"/><rect x="377.77" y="224.62" width="5.74" height="5.61"/><rect class="cls-16" x="372.04" y="224.62" width="5.74" height="5.61"/><rect class="cls-1" x="274.52" y="224.62" width="5.74" height="5.61"/><rect x="268.78" y="224.62" width="5.74" height="5.61"/><rect class="cls-33" x="263.05" y="224.62" width="5.74" height="5.61"/><rect x="205.68" y="224.62" width="5.74" height="5.61"/><rect class="cls-32" x="394.98" y="219" width="5.74" height="5.61"/><rect x="389.25" y="219" width="5.74" height="5.61"/><rect x="280.25" y="219" width="5.74" height="5.61"/><rect class="cls-12" x="274.52" y="219" width="5.74" height="5.61"/><rect x="205.68" y="219" width="5.74" height="5.61"/><rect x="400.72" y="213.39" width="5.74" height="5.61"/><rect class="cls-19" x="394.98" y="213.39" width="5.74" height="5.61"/><rect x="285.99" y="213.39" width="5.74" height="5.61"/><rect x="205.68" y="213.39" width="5.74" height="5.61"/><rect x="412.19" y="207.78" width="5.74" height="5.61"/><rect class="cls-32" x="406.45" y="207.78" width="5.74" height="5.61"/><rect x="291.73" y="207.78" width="5.74" height="5.61"/><rect class="cls-39" x="211.42" y="207.78" width="5.74" height="5.61"/><rect class="cls-1" x="205.68" y="207.78" width="5.74" height="5.61"/><rect class="cls-12" x="199.95" y="207.78" width="5.74" height="5.61"/><rect class="cls-29" x="423.66" y="202.16" width="5.74" height="5.61"/><rect x="417.93" y="202.16" width="5.74" height="5.61"/><rect x="297.46" y="202.16" width="5.74" height="5.61"/><rect class="cls-37" x="291.73" y="202.16" width="5.74" height="5.61"/><rect x="285.99" y="202.16" width="5.74" height="5.61"/><rect x="280.25" y="202.16" width="5.74" height="5.61"/><rect x="217.15" y="202.16" width="5.74" height="5.61"/><rect x="211.42" y="202.16" width="5.74" height="5.61"/><rect class="cls-1" x="205.68" y="202.16" width="5.74" height="5.61"/><rect class="cls-28" x="194.21" y="202.16" width="5.74" height="5.61"/><rect x="188.47" y="202.16" width="5.74" height="5.61"/><rect x="630.17" y="196.55" width="5.74" height="5.61"/><rect x="624.44" y="196.55" width="5.74" height="5.61"/><rect class="cls-22" x="618.7" y="196.55" width="5.74" height="5.61"/><rect class="cls-25" x="612.96" y="196.55" width="5.74" height="5.61"/><rect class="cls-40" x="607.23" y="196.55" width="5.74" height="5.61"/><rect class="cls-12" x="601.49" y="196.55" width="5.74" height="5.61"/><rect class="cls-12" x="486.76" y="196.55" width="5.74" height="5.61"/><rect class="cls-40" x="481.03" y="196.55" width="5.74" height="5.61"/><rect class="cls-2" x="475.29" y="196.55" width="5.74" height="5.61"/><rect class="cls-11" x="469.55" y="196.55" width="5.74" height="5.61"/><rect class="cls-33" x="463.82" y="196.55" width="5.74" height="5.61"/><rect x="458.08" y="196.55" width="5.74" height="5.61"/><rect x="452.35" y="196.55" width="5.74" height="5.61"/><rect x="446.61" y="196.55" width="5.74" height="5.61"/><rect x="440.87" y="196.55" width="5.74" height="5.61"/><rect x="435.14" y="196.55" width="5.74" height="5.61"/><rect x="429.4" y="196.55" width="5.74" height="5.61"/><rect x="297.46" y="196.55" width="5.74" height="5.61"/><rect class="cls-4" x="291.73" y="196.55" width="5.74" height="5.61"/><rect x="274.52" y="196.55" width="5.74" height="5.61"/><rect x="228.63" y="196.55" width="5.74" height="5.61"/><rect class="cls-28" x="222.89" y="196.55" width="5.74" height="5.61"/><rect x="182.74" y="196.55" width="5.74" height="5.61"/><rect class="cls-12" x="595.75" y="190.94" width="5.74" height="5.61"/><rect class="cls-40" x="590.02" y="190.94" width="5.74" height="5.61"/><rect class="cls-2" x="584.28" y="190.94" width="5.74" height="5.61"/><rect class="cls-2" x="578.55" y="190.94" width="5.74" height="5.61"/><rect class="cls-11" x="572.81" y="190.94" width="5.74" height="5.61"/><rect class="cls-11" x="567.07" y="190.94" width="5.74" height="5.61"/><rect class="cls-11" x="561.34" y="190.94" width="5.74" height="5.61"/><rect class="cls-11" x="555.6" y="190.94" width="5.74" height="5.61"/><rect class="cls-11" x="549.86" y="190.94" width="5.74" height="5.61"/><rect class="cls-11" x="544.13" y="190.94" width="5.74" height="5.61"/><rect class="cls-11" x="538.39" y="190.94" width="5.74" height="5.61"/><rect class="cls-11" x="532.65" y="190.94" width="5.74" height="5.61"/><rect class="cls-11" x="526.92" y="190.94" width="5.74" height="5.61"/><rect class="cls-2" x="521.18" y="190.94" width="5.74" height="5.61"/><rect class="cls-2" x="515.45" y="190.94" width="5.74" height="5.61"/><rect class="cls-23" x="509.71" y="190.94" width="5.74" height="5.61"/><rect class="cls-40" x="503.97" y="190.94" width="5.74" height="5.61"/><rect class="cls-16" x="498.24" y="190.94" width="5.74" height="5.61"/><rect class="cls-12" x="492.5" y="190.94" width="5.74" height="5.61"/><rect class="cls-40" x="303.2" y="190.94" width="5.74" height="5.61"/><rect x="274.52" y="190.94" width="5.74" height="5.61"/><rect class="cls-12" x="251.57" y="190.94" width="5.74" height="5.61"/><rect class="cls-30" x="245.84" y="190.94" width="5.74" height="5.61"/><rect x="240.1" y="190.94" width="5.74" height="5.61"/><rect class="cls-11" x="234.36" y="190.94" width="5.74" height="5.61"/><rect class="cls-19" x="177" y="190.94" width="5.74" height="5.61"/><rect x="349.09" y="185.32" width="5.74" height="5.61"/><rect class="cls-41" x="343.35" y="185.32" width="5.74" height="5.61"/><rect class="cls-42" x="303.2" y="185.32" width="5.74" height="5.61"/><rect class="cls-29" x="297.46" y="185.32" width="5.74" height="5.61"/><rect class="cls-15" x="291.73" y="185.32" width="5.74" height="5.61"/><rect x="285.99" y="185.32" width="5.74" height="5.61"/><rect x="280.25" y="185.32" width="5.74" height="5.61"/><rect x="274.52" y="185.32" width="5.74" height="5.61"/><rect class="cls-25" x="268.78" y="185.32" width="5.74" height="5.61"/><rect class="cls-2" x="263.05" y="185.32" width="5.74" height="5.61"/><rect class="cls-40" x="257.31" y="185.32" width="5.74" height="5.61"/><rect class="cls-35" x="188.47" y="185.32" width="5.74" height="5.61"/><rect x="177" y="185.32" width="5.74" height="5.61"/><rect class="cls-20" x="343.35" y="179.71" width="5.74" height="5.61"/><rect x="337.62" y="179.71" width="5.74" height="5.61"/><rect x="308.94" y="179.71" width="5.74" height="5.61"/><rect x="188.47" y="179.71" width="5.74" height="5.61"/><rect x="177" y="179.71" width="5.74" height="5.61"/><rect x="331.88" y="174.1" width="5.74" height="5.61"/><rect x="314.67" y="174.1" width="5.74" height="5.61"/><rect class="cls-40" x="297.46" y="174.1" width="5.74" height="5.61"/><rect class="cls-11" x="240.1" y="174.1" width="5.74" height="5.61"/><rect x="234.36" y="174.1" width="5.74" height="5.61"/><rect x="228.63" y="174.1" width="5.74" height="5.61"/><rect class="cls-13" x="222.89" y="174.1" width="5.74" height="5.61"/><rect x="188.47" y="174.1" width="5.74" height="5.61"/><rect x="177" y="174.1" width="5.74" height="5.61"/><rect class="cls-32" x="394.98" y="168.48" width="5.74" height="5.61"/><rect x="326.15" y="168.48" width="5.74" height="5.61"/><rect x="314.67" y="168.48" width="5.74" height="5.61"/><rect x="308.94" y="168.48" width="5.74" height="5.61"/><rect class="cls-10" x="303.2" y="168.48" width="5.74" height="5.61"/><rect x="285.99" y="168.48" width="5.74" height="5.61"/><rect class="cls-10" x="280.25" y="168.48" width="5.74" height="5.61"/><rect class="cls-12" x="257.31" y="168.48" width="5.74" height="5.61"/><rect x="251.57" y="168.48" width="5.74" height="5.61"/><rect class="cls-14" x="245.84" y="168.48" width="5.74" height="5.61"/><rect class="cls-21" x="222.89" y="168.48" width="5.74" height="5.61"/><rect class="cls-23" x="217.15" y="168.48" width="5.74" height="5.61"/><rect x="177" y="168.48" width="5.74" height="5.61"/><rect class="cls-18" x="389.25" y="162.87" width="5.74" height="5.61"/><rect x="383.51" y="162.87" width="5.74" height="5.61"/><rect x="320.41" y="162.87" width="5.74" height="5.61"/><rect class="cls-4" x="314.67" y="162.87" width="5.74" height="5.61"/><rect class="cls-27" x="308.94" y="162.87" width="5.74" height="5.61"/><rect x="280.25" y="162.87" width="5.74" height="5.61"/><rect x="263.05" y="162.87" width="5.74" height="5.61"/><rect class="cls-1" x="257.31" y="162.87" width="5.74" height="5.61"/><rect x="234.36" y="162.87" width="5.74" height="5.61"/><rect x="228.63" y="162.87" width="5.74" height="5.61"/><rect class="cls-29" x="222.89" y="162.87" width="5.74" height="5.61"/><rect x="217.15" y="162.87" width="5.74" height="5.61"/><rect x="182.74" y="162.87" width="5.74" height="5.61"/><rect class="cls-42" x="377.77" y="157.25" width="5.74" height="5.61"/><rect x="372.04" y="157.25" width="5.74" height="5.61"/><rect class="cls-31" x="320.41" y="157.25" width="5.74" height="5.61"/><rect x="280.25" y="157.25" width="5.74" height="5.61"/><rect class="cls-3" x="274.52" y="157.25" width="5.74" height="5.61"/><rect class="cls-29" x="268.78" y="157.25" width="5.74" height="5.61"/><rect class="cls-19" x="245.84" y="157.25" width="5.74" height="5.61"/><rect class="cls-42" x="240.1" y="157.25" width="5.74" height="5.61"/><rect class="cls-3" x="217.15" y="157.25" width="5.74" height="5.61"/><rect class="cls-12" x="205.68" y="157.25" width="5.74" height="5.61"/><rect class="cls-14" x="199.95" y="157.25" width="5.74" height="5.61"/><rect x="194.21" y="157.25" width="5.74" height="5.61"/><rect class="cls-29" x="188.47" y="157.25" width="5.74" height="5.61"/><rect class="cls-11" x="412.19" y="151.64" width="5.74" height="5.61"/><rect x="406.45" y="151.64" width="5.74" height="5.61"/><rect x="400.72" y="151.64" width="5.74" height="5.61"/><rect x="394.98" y="151.64" width="5.74" height="5.61"/><rect x="389.25" y="151.64" width="5.74" height="5.61"/><rect class="cls-22" x="383.51" y="151.64" width="5.74" height="5.61"/><rect class="cls-9" x="372.04" y="151.64" width="5.74" height="5.61"/><rect class="cls-6" x="320.41" y="151.64" width="5.74" height="5.61"/><rect class="cls-27" x="280.25" y="151.64" width="5.74" height="5.61"/><rect x="274.52" y="151.64" width="5.74" height="5.61"/><rect x="245.84" y="151.64" width="5.74" height="5.61"/><rect x="222.89" y="151.64" width="5.74" height="5.61"/><rect x="211.42" y="151.64" width="5.74" height="5.61"/><rect x="205.68" y="151.64" width="5.74" height="5.61"/><rect class="cls-5" x="199.95" y="151.64" width="5.74" height="5.61"/><rect x="423.66" y="146.03" width="5.74" height="5.61"/><rect x="417.93" y="146.03" width="5.74" height="5.61"/><rect x="377.77" y="146.03" width="5.74" height="5.61"/><rect x="372.04" y="146.03" width="5.74" height="5.61"/><rect x="314.67" y="146.03" width="5.74" height="5.61"/><rect x="303.2" y="146.03" width="5.74" height="5.61"/><rect x="297.46" y="146.03" width="5.74" height="5.61"/><rect class="cls-29" x="291.73" y="146.03" width="5.74" height="5.61"/><rect x="280.25" y="146.03" width="5.74" height="5.61"/><rect x="251.57" y="146.03" width="5.74" height="5.61"/><rect class="cls-26" x="228.63" y="146.03" width="5.74" height="5.61"/><rect x="222.89" y="146.03" width="5.74" height="5.61"/><rect class="cls-34" x="217.15" y="146.03" width="5.74" height="5.61"/><rect class="cls-24" x="435.14" y="140.41" width="5.74" height="5.61"/><rect x="429.4" y="140.41" width="5.74" height="5.61"/><rect class="cls-43" x="366.3" y="140.41" width="5.74" height="5.61"/><rect x="308.94" y="140.41" width="5.74" height="5.61"/><rect x="303.2" y="140.41" width="5.74" height="5.61"/><rect class="cls-29" x="297.46" y="140.41" width="5.74" height="5.61"/><rect x="285.99" y="140.41" width="5.74" height="5.61"/><rect x="251.57" y="140.41" width="5.74" height="5.61"/><rect x="228.63" y="140.41" width="5.74" height="5.61"/><rect class="cls-2" x="217.15" y="140.41" width="5.74" height="5.61"/><rect x="211.42" y="140.41" width="5.74" height="5.61"/><rect x="205.68" y="140.41" width="5.74" height="5.61"/><rect x="199.95" y="140.41" width="5.74" height="5.61"/><rect x="194.21" y="140.41" width="5.74" height="5.61"/><rect x="188.47" y="140.41" width="5.74" height="5.61"/><rect x="182.74" y="140.41" width="5.74" height="5.61"/><rect x="177" y="140.41" width="5.74" height="5.61"/><rect x="171.26" y="140.41" width="5.74" height="5.61"/><rect x="165.53" y="140.41" width="5.74" height="5.61"/><rect x="159.79" y="140.41" width="5.74" height="5.61"/><rect x="154.05" y="140.41" width="5.74" height="5.61"/><rect x="148.32" y="140.41" width="5.74" height="5.61"/><rect x="142.58" y="140.41" width="5.74" height="5.61"/><rect x="136.85" y="140.41" width="5.74" height="5.61"/><rect x="131.11" y="140.41" width="5.74" height="5.61"/><rect x="125.37" y="140.41" width="5.74" height="5.61"/><rect x="119.64" y="140.41" width="5.74" height="5.61"/><rect x="113.9" y="140.41" width="5.74" height="5.61"/><rect class="cls-22" x="108.16" y="140.41" width="5.74" height="5.61"/><rect class="cls-5" x="102.43" y="140.41" width="5.74" height="5.61"/><rect class="cls-4" x="96.69" y="140.41" width="5.74" height="5.61"/><rect class="cls-12" x="90.95" y="140.41" width="5.74" height="5.61"/><rect class="cls-39" x="85.22" y="140.41" width="5.74" height="5.61"/><rect class="cls-12" x="68.01" y="140.41" width="5.74" height="5.61"/><rect class="cls-40" x="62.27" y="140.41" width="5.74" height="5.61"/><rect class="cls-31" x="56.54" y="140.41" width="5.74" height="5.61"/><rect x="50.8" y="140.41" width="5.74" height="5.61"/><rect x="45.06" y="140.41" width="5.74" height="5.61"/><rect x="39.33" y="140.41" width="5.74" height="5.61"/><rect x="33.59" y="140.41" width="5.74" height="5.61"/><rect x="27.85" y="140.41" width="5.74" height="5.61"/><rect x="22.12" y="140.41" width="5.74" height="5.61"/><rect class="cls-10" x="16.38" y="140.41" width="5.74" height="5.61"/><rect x="440.87" y="134.8" width="5.74" height="5.61"/><rect class="cls-6" x="435.14" y="134.8" width="5.74" height="5.61"/><rect class="cls-10" x="337.62" y="134.8" width="5.74" height="5.61"/><rect class="cls-42" x="303.2" y="134.8" width="5.74" height="5.61"/><rect x="291.73" y="134.8" width="5.74" height="5.61"/><rect x="251.57" y="134.8" width="5.74" height="5.61"/><rect x="234.36" y="134.8" width="5.74" height="5.61"/><rect class="cls-12" x="79.48" y="134.8" width="5.74" height="5.61"/><rect class="cls-12" x="73.75" y="134.8" width="5.74" height="5.61"/><rect x="10.65" y="134.8" width="5.74" height="5.61"/><rect class="cls-3" x="452.35" y="129.19" width="5.74" height="5.61"/><rect x="446.61" y="129.19" width="5.74" height="5.61"/><rect x="331.88" y="129.19" width="5.74" height="5.61"/><rect x="326.15" y="129.19" width="5.74" height="5.61"/><rect class="cls-7" x="308.94" y="129.19" width="5.74" height="5.61"/><rect x="303.2" y="129.19" width="5.74" height="5.61"/><rect x="297.46" y="129.19" width="5.74" height="5.61"/><rect class="cls-42" x="291.73" y="129.19" width="5.74" height="5.61"/><rect class="cls-33" x="240.1" y="129.19" width="5.74" height="5.61"/><rect class="cls-13" x="148.32" y="129.19" width="5.74" height="5.61"/><rect x="4.91" y="129.19" width="5.74" height="5.61"/><rect class="cls-34" x="458.08" y="123.57" width="5.74" height="5.61"/><rect class="cls-21" x="452.35" y="123.57" width="5.74" height="5.61"/><rect x="320.41" y="123.57" width="5.74" height="5.61"/><rect x="314.67" y="123.57" width="5.74" height="5.61"/><rect class="cls-40" x="291.73" y="123.57" width="5.74" height="5.61"/><rect class="cls-29" x="240.1" y="123.57" width="5.74" height="5.61"/><rect class="cls-2" x="217.15" y="123.57" width="5.74" height="5.61"/><rect x="148.32" y="123.57" width="5.74" height="5.61"/><rect x="85.22" y="123.57" width="5.74" height="5.61"/><rect x="4.91" y="123.57" width="5.74" height="5.61"/><rect x="343.35" y="117.96" width="5.74" height="5.61"/><rect x="337.62" y="117.96" width="5.74" height="5.61"/><rect x="331.88" y="117.96" width="5.74" height="5.61"/><rect x="326.15" y="117.96" width="5.74" height="5.61"/><rect class="cls-26" x="320.41" y="117.96" width="5.74" height="5.61"/><rect class="cls-6" x="291.73" y="117.96" width="5.74" height="5.61"/><rect x="245.84" y="117.96" width="5.74" height="5.61"/><rect class="cls-8" x="211.42" y="117.96" width="5.74" height="5.61"/><rect x="148.32" y="117.96" width="5.74" height="5.61"/><rect x="85.22" y="117.96" width="5.74" height="5.61"/><rect x="4.91" y="117.96" width="5.74" height="5.61"/><rect x="354.83" y="112.35" width="5.74" height="5.61"/><rect class="cls-11" x="349.09" y="112.35" width="5.74" height="5.61"/><rect class="cls-6" x="326.15" y="112.35" width="5.74" height="5.61"/><rect class="cls-21" x="245.84" y="112.35" width="5.74" height="5.61"/><rect x="211.42" y="112.35" width="5.74" height="5.61"/><rect class="cls-14" x="148.32" y="112.35" width="5.74" height="5.61"/><rect x="85.22" y="112.35" width="5.74" height="5.61"/><rect x="10.65" y="112.35" width="5.74" height="5.61"/><rect class="cls-35" x="366.3" y="106.73" width="5.74" height="5.61"/><rect x="360.56" y="106.73" width="5.74" height="5.61"/><rect x="251.57" y="106.73" width="5.74" height="5.61"/><rect x="211.42" y="106.73" width="5.74" height="5.61"/><rect class="cls-39" x="27.85" y="106.73" width="5.74" height="5.61"/><rect x="22.12" y="106.73" width="5.74" height="5.61"/><rect x="16.38" y="106.73" width="5.74" height="5.61"/><rect x="372.04" y="101.12" width="5.74" height="5.61"/><rect class="cls-2" x="291.73" y="101.12" width="5.74" height="5.61"/><rect class="cls-12" x="285.99" y="101.12" width="5.74" height="5.61"/><rect x="257.31" y="101.12" width="5.74" height="5.61"/><rect class="cls-13" x="211.42" y="101.12" width="5.74" height="5.61"/><rect class="cls-20" x="205.68" y="101.12" width="5.74" height="5.61"/><rect class="cls-43" x="199.95" y="101.12" width="5.74" height="5.61"/><rect class="cls-24" x="194.21" y="101.12" width="5.74" height="5.61"/><rect class="cls-11" x="188.47" y="101.12" width="5.74" height="5.61"/><rect class="cls-2" x="182.74" y="101.12" width="5.74" height="5.61"/><rect class="cls-20" x="85.22" y="101.12" width="5.74" height="5.61"/><rect class="cls-35" x="79.48" y="101.12" width="5.74" height="5.61"/><rect x="73.75" y="101.12" width="5.74" height="5.61"/><rect x="68.01" y="101.12" width="5.74" height="5.61"/><rect x="62.27" y="101.12" width="5.74" height="5.61"/><rect x="56.54" y="101.12" width="5.74" height="5.61"/><rect x="50.8" y="101.12" width="5.74" height="5.61"/><rect x="45.06" y="101.12" width="5.74" height="5.61"/><rect class="cls-22" x="39.33" y="101.12" width="5.74" height="5.61"/><rect class="cls-11" x="33.59" y="101.12" width="5.74" height="5.61"/><rect class="cls-38" x="27.85" y="101.12" width="5.74" height="5.61"/><rect class="cls-24" x="285.99" y="95.5" width="5.74" height="5.61"/><rect x="280.25" y="95.5" width="5.74" height="5.61"/><rect class="cls-42" x="268.78" y="95.5" width="5.74" height="5.61"/><rect x="263.05" y="95.5" width="5.74" height="5.61"/><rect x="205.68" y="95.5" width="5.74" height="5.61"/><rect class="cls-38" x="177" y="95.5" width="5.74" height="5.61"/><rect class="cls-31" x="171.26" y="95.5" width="5.74" height="5.61"/><rect x="165.53" y="95.5" width="5.74" height="5.61"/><rect x="159.79" y="95.5" width="5.74" height="5.61"/><rect x="154.05" y="95.5" width="5.74" height="5.61"/><rect x="148.32" y="95.5" width="5.74" height="5.61"/><rect x="142.58" y="95.5" width="5.74" height="5.61"/><rect x="136.85" y="95.5" width="5.74" height="5.61"/><rect x="131.11" y="95.5" width="5.74" height="5.61"/><rect x="125.37" y="95.5" width="5.74" height="5.61"/><rect x="119.64" y="95.5" width="5.74" height="5.61"/><rect x="113.9" y="95.5" width="5.74" height="5.61"/><rect x="108.16" y="95.5" width="5.74" height="5.61"/><rect class="cls-22" x="102.43" y="95.5" width="5.74" height="5.61"/><rect class="cls-2" x="96.69" y="95.5" width="5.74" height="5.61"/><rect class="cls-12" x="90.95" y="95.5" width="5.74" height="5.61"/><rect x="274.52" y="89.89" width="5.74" height="5.61"/><rect class="cls-22" x="268.78" y="89.89" width="5.74" height="5.61"/><rect class="cls-24" x="205.68" y="89.89" width="5.74" height="5.61"/><rect class="cls-40" x="199.95" y="89.89" width="5.74" height="5.61"/><rect x="285.99" y="84.28" width="5.74" height="5.61"/><rect class="cls-33" x="280.25" y="84.28" width="5.74" height="5.61"/><rect x="268.78" y="84.28" width="5.74" height="5.61"/><rect x="199.95" y="84.28" width="5.74" height="5.61"/><rect class="cls-38" x="194.21" y="84.28" width="5.74" height="5.61"/><rect x="297.46" y="78.66" width="5.74" height="5.61"/><rect class="cls-42" x="291.73" y="78.66" width="5.74" height="5.61"/><rect class="cls-17" x="268.78" y="78.66" width="5.74" height="5.61"/><rect class="cls-19" x="263.05" y="78.66" width="5.74" height="5.61"/><rect class="cls-33" x="194.21" y="78.66" width="5.74" height="5.61"/><rect x="188.47" y="78.66" width="5.74" height="5.61"/><rect x="435.14" y="73.05" width="5.74" height="5.61"/><rect class="cls-42" x="308.94" y="73.05" width="5.74" height="5.61"/><rect x="303.2" y="73.05" width="5.74" height="5.61"/><rect class="cls-43" x="263.05" y="73.05" width="5.74" height="5.61"/><rect x="257.31" y="73.05" width="5.74" height="5.61"/><rect class="cls-31" x="182.74" y="73.05" width="5.74" height="5.61"/><rect x="177" y="73.05" width="5.74" height="5.61"/><rect class="cls-31" x="171.26" y="73.05" width="5.74" height="5.61"/><rect class="cls-7" x="458.08" y="67.44" width="5.74" height="5.61"/><rect class="cls-22" x="452.35" y="67.44" width="5.74" height="5.61"/><rect x="446.61" y="67.44" width="5.74" height="5.61"/><rect x="440.87" y="67.44" width="5.74" height="5.61"/><rect x="435.14" y="67.44" width="5.74" height="5.61"/><rect class="cls-34" x="429.4" y="67.44" width="5.74" height="5.61"/><rect class="cls-13" x="423.66" y="67.44" width="5.74" height="5.61"/><rect class="cls-39" x="320.41" y="67.44" width="5.74" height="5.61"/><rect x="314.67" y="67.44" width="5.74" height="5.61"/><rect x="165.53" y="67.44" width="5.74" height="5.61"/><rect x="159.79" y="67.44" width="5.74" height="5.61"/><rect class="cls-7" x="154.05" y="67.44" width="5.74" height="5.61"/><rect class="cls-17" x="492.5" y="61.82" width="5.74" height="5.61"/><rect x="486.76" y="61.82" width="5.74" height="5.61"/><rect x="481.03" y="61.82" width="5.74" height="5.61"/><rect x="475.29" y="61.82" width="5.74" height="5.61"/><rect x="469.55" y="61.82" width="5.74" height="5.61"/><rect class="cls-23" x="463.82" y="61.82" width="5.74" height="5.61"/><rect class="cls-1" x="417.93" y="61.82" width="5.74" height="5.61"/><rect class="cls-18" x="412.19" y="61.82" width="5.74" height="5.61"/><rect x="406.45" y="61.82" width="5.74" height="5.61"/><rect x="400.72" y="61.82" width="5.74" height="5.61"/><rect x="394.98" y="61.82" width="5.74" height="5.61"/><rect x="389.25" y="61.82" width="5.74" height="5.61"/><rect x="383.51" y="61.82" width="5.74" height="5.61"/><rect x="377.77" y="61.82" width="5.74" height="5.61"/><rect x="372.04" y="61.82" width="5.74" height="5.61"/><rect x="366.3" y="61.82" width="5.74" height="5.61"/><rect x="360.56" y="61.82" width="5.74" height="5.61"/><rect class="cls-3" x="354.83" y="61.82" width="5.74" height="5.61"/><rect class="cls-38" x="349.09" y="61.82" width="5.74" height="5.61"/><rect class="cls-33" x="320.41" y="61.82" width="5.74" height="5.61"/><rect class="cls-38" x="154.05" y="61.82" width="5.74" height="5.61"/><rect class="cls-42" x="148.32" y="61.82" width="5.74" height="5.61"/><rect x="142.58" y="61.82" width="5.74" height="5.61"/><rect class="cls-35" x="136.85" y="61.82" width="5.74" height="5.61"/><rect class="cls-2" x="526.92" y="56.21" width="5.74" height="5.61"/><rect x="521.18" y="56.21" width="5.74" height="5.61"/><rect x="515.45" y="56.21" width="5.74" height="5.61"/><rect x="509.71" y="56.21" width="5.74" height="5.61"/><rect x="503.97" y="56.21" width="5.74" height="5.61"/><rect class="cls-8" x="498.24" y="56.21" width="5.74" height="5.61"/><rect class="cls-15" x="343.35" y="56.21" width="5.74" height="5.61"/><rect class="cls-29" x="337.62" y="56.21" width="5.74" height="5.61"/><rect x="331.88" y="56.21" width="5.74" height="5.61"/><rect x="326.15" y="56.21" width="5.74" height="5.61"/><rect x="320.41" y="56.21" width="5.74" height="5.61"/><rect x="314.67" y="56.21" width="5.74" height="5.61"/><rect class="cls-33" x="308.94" y="56.21" width="5.74" height="5.61"/><rect class="cls-8" x="303.2" y="56.21" width="5.74" height="5.61"/><rect class="cls-33" x="131.11" y="56.21" width="5.74" height="5.61"/><rect x="125.37" y="56.21" width="5.74" height="5.61"/><rect class="cls-29" x="119.64" y="56.21" width="5.74" height="5.61"/><rect class="cls-7" x="561.34" y="50.6" width="5.74" height="5.61"/><rect class="cls-29" x="555.6" y="50.6" width="5.74" height="5.61"/><rect x="549.86" y="50.6" width="5.74" height="5.61"/><rect x="544.13" y="50.6" width="5.74" height="5.61"/><rect x="538.39" y="50.6" width="5.74" height="5.61"/><rect class="cls-36" x="532.65" y="50.6" width="5.74" height="5.61"/><rect class="cls-40" x="297.46" y="50.6" width="5.74" height="5.61"/><rect class="cls-22" x="291.73" y="50.6" width="5.74" height="5.61"/><rect x="285.99" y="50.6" width="5.74" height="5.61"/><rect x="280.25" y="50.6" width="5.74" height="5.61"/><rect x="274.52" y="50.6" width="5.74" height="5.61"/><rect x="268.78" y="50.6" width="5.74" height="5.61"/><rect class="cls-35" x="263.05" y="50.6" width="5.74" height="5.61"/><rect class="cls-6" x="257.31" y="50.6" width="5.74" height="5.61"/><rect class="cls-34" x="165.53" y="50.6" width="5.74" height="5.61"/><rect class="cls-2" x="113.9" y="50.6" width="5.74" height="5.61"/><rect x="108.16" y="50.6" width="5.74" height="5.61"/><rect x="102.43" y="50.6" width="5.74" height="5.61"/><rect class="cls-16" x="96.69" y="50.6" width="5.74" height="5.61"/><rect class="cls-28" x="590.02" y="44.98" width="5.74" height="5.61"/><rect x="584.28" y="44.98" width="5.74" height="5.61"/><rect x="578.55" y="44.98" width="5.74" height="5.61"/><rect x="572.81" y="44.98" width="5.74" height="5.61"/><rect class="cls-31" x="567.07" y="44.98" width="5.74" height="5.61"/><rect class="cls-15" x="251.57" y="44.98" width="5.74" height="5.61"/><rect x="245.84" y="44.98" width="5.74" height="5.61"/><rect x="240.1" y="44.98" width="5.74" height="5.61"/><rect x="234.36" y="44.98" width="5.74" height="5.61"/><rect x="228.63" y="44.98" width="5.74" height="5.61"/><rect class="cls-10" x="222.89" y="44.98" width="5.74" height="5.61"/><rect x="165.53" y="44.98" width="5.74" height="5.61"/><rect class="cls-16" x="96.69" y="44.98" width="5.74" height="5.61"/><rect x="90.95" y="44.98" width="5.74" height="5.61"/><rect x="85.22" y="44.98" width="5.74" height="5.61"/><rect x="79.48" y="44.98" width="5.74" height="5.61"/><rect x="73.75" y="44.98" width="5.74" height="5.61"/><rect x="68.01" y="44.98" width="5.74" height="5.61"/><rect class="cls-20" x="62.27" y="44.98" width="5.74" height="5.61"/><rect class="cls-15" x="624.44" y="39.37" width="5.74" height="5.61"/><rect x="618.7" y="39.37" width="5.74" height="5.61"/><rect x="612.96" y="39.37" width="5.74" height="5.61"/><rect x="607.23" y="39.37" width="5.74" height="5.61"/><rect class="cls-14" x="601.49" y="39.37" width="5.74" height="5.61"/><rect class="cls-12" x="595.75" y="39.37" width="5.74" height="5.61"/><rect class="cls-28" x="217.15" y="39.37" width="5.74" height="5.61"/><rect x="211.42" y="39.37" width="5.74" height="5.61"/><rect class="cls-24" x="205.68" y="39.37" width="5.74" height="5.61"/><rect class="cls-13" x="165.53" y="39.37" width="5.74" height="5.61"/><rect x="108.16" y="39.37" width="5.74" height="5.61"/><rect class="cls-29" x="56.54" y="39.37" width="5.74" height="5.61"/><rect class="cls-19" x="50.8" y="39.37" width="5.74" height="5.61"/><rect class="cls-36" x="630.17" y="33.75" width="5.74" height="5.61"/><rect x="199.95" y="33.75" width="5.74" height="5.61"/><rect x="194.21" y="33.75" width="5.74" height="5.61"/><rect class="cls-18" x="108.16" y="33.75" width="5.74" height="5.61"/><rect class="cls-24" x="50.8" y="33.75" width="5.74" height="5.61"/><rect class="cls-27" x="45.06" y="33.75" width="5.74" height="5.61"/><rect class="cls-17" x="194.21" y="28.14" width="5.74" height="5.61"/><rect x="188.47" y="28.14" width="5.74" height="5.61"/><rect class="cls-31" x="182.74" y="28.14" width="5.74" height="5.61"/><rect class="cls-37" x="108.16" y="28.14" width="5.74" height="5.61"/><rect x="45.06" y="28.14" width="5.74" height="5.61"/><rect x="177" y="22.53" width="5.74" height="5.61"/><rect x="171.26" y="22.53" width="5.74" height="5.61"/><rect class="cls-24" x="165.53" y="22.53" width="5.74" height="5.61"/><rect class="cls-12" x="113.9" y="22.53" width="5.74" height="5.61"/><rect x="45.06" y="22.53" width="5.74" height="5.61"/><rect class="cls-3" x="159.79" y="16.91" width="5.74" height="5.61"/><rect x="154.05" y="16.91" width="5.74" height="5.61"/><rect x="148.32" y="16.91" width="5.74" height="5.61"/><rect x="142.58" y="16.91" width="5.74" height="5.61"/><rect class="cls-29" x="136.85" y="16.91" width="5.74" height="5.61"/><rect class="cls-8" x="131.11" y="16.91" width="5.74" height="5.61"/><rect x="45.06" y="16.91" width="5.74" height="5.61"/><rect class="cls-27" x="125.37" y="11.3" width="5.74" height="5.61"/><rect class="cls-34" x="119.64" y="11.3" width="5.74" height="5.61"/><rect x="113.9" y="11.3" width="5.74" height="5.61"/><rect x="108.16" y="11.3" width="5.74" height="5.61"/><rect class="cls-33" x="102.43" y="11.3" width="5.74" height="5.61"/><rect x="50.8" y="11.3" width="5.74" height="5.61"/><rect class="cls-13" x="96.69" y="5.69" width="5.74" height="5.61"/><rect class="cls-29" x="90.95" y="5.69" width="5.74" height="5.61"/><rect x="85.22" y="5.69" width="5.74" height="5.61"/><rect x="79.48" y="5.69" width="5.74" height="5.61"/><rect x="73.75" y="5.69" width="5.74" height="5.61"/><rect x="68.01" y="5.69" width="5.74" height="5.61"/><rect x="62.27" y="5.69" width="5.74" height="5.61"/><rect class="cls-35" x="56.54" y="5.69" width="5.74" height="5.61"/></svg>